<?xml version="1.0" encoding="utf-8"?>
<!-- Generator: Adobe Illustrator 23.0.0, SVG Export Plug-In . SVG Version: 6.00 Build 0)  -->
<svg version="1.1" id="Livello_1" xmlns="http://www.w3.org/2000/svg" xmlns:xlink="http://www.w3.org/1999/xlink" x="0px" y="0px"
	 viewBox="0 0 47 47" style="enable-background:new 0 0 47 47;" xml:space="preserve">
<style type="text/css">
	.st0{fill:#00B1FF;stroke:#FFFFFF;stroke-miterlimit:10;}
	.st1{fill:#FFC430;stroke:#FFFFFF;stroke-miterlimit:10;}
	.st2{fill:#FFD700;stroke:#FFFFFF;stroke-miterlimit:10;}
</style>
<g>
	<path class="st0" d="M37.6,0H9.4C6.9,0,4.5,1,2.8,2.8S0,6.9,0,9.4v28.2c0,2.5,1,4.9,2.8,6.6C4.5,46,6.9,47,9.4,47h28.2
		c2.5,0,4.9-1,6.6-2.8c1.8-1.8,2.8-4.2,2.8-6.6V9.4c0-2.5-1-4.9-2.8-6.6C42.5,1,40.1,0,37.6,0z M29,46.2c-3.5-3.4-7.7-6-12.4-7.4
		C12,37.3,7.1,37,2.3,37.9c2.2-4.3,3.3-9.2,3.2-14C5.4,19,4.2,14.2,1.9,9.9c4.8,0.7,9.8,0.3,14.4-1.3c4.6-1.6,8.8-4.3,12.1-7.8
		l0.4,2c0.7,4.2,2.3,8.2,4.9,11.6s5.9,6.2,9.7,8l1.8,0.9c-4.3,2.2-8.1,5.5-10.9,9.4C31.4,36.7,29.6,41.3,29,46.2z"/>
	<path class="st1" d="M28.7,2.8l-0.3-2c-3.4,3.6-7.5,6.2-12.2,7.8c-4.6,1.6-9.6,2-14.4,1.3c2.3,4.3,3.6,9.1,3.7,14
		c0.1,4.9-1,9.7-3.3,14c4.8-0.9,9.7-0.6,14.4,0.8c4.7,1.4,8.9,4,12.4,7.4c0.6-4.8,2.4-9.5,5.2-13.5c2.8-4,6.6-7.2,10.9-9.5l-1.8-0.8
		c-3.8-1.8-7.2-4.6-9.7-8C31.1,11,29.4,7,28.7,2.8z M20.9,34.2c-2.1,0-4.2-0.6-6-1.8c-1.8-1.2-3.1-2.8-4-4.8c-0.8-2-1-4.1-0.6-6.2
		c0.4-2.1,1.4-4,2.9-5.5s3.4-2.5,5.5-2.9c2.1-0.4,4.2-0.2,6.2,0.6c2,0.8,3.6,2.2,4.8,3.9c1.2,1.8,1.8,3.8,1.8,5.9
		c0,2.8-1.1,5.5-3.1,7.5C26.4,33,23.7,34.2,20.9,34.2L20.9,34.2z"/>
	<path class="st2" d="M20.9,34.2c5.9,0,10.7-4.8,10.7-10.7s-4.8-10.7-10.7-10.7s-10.7,4.8-10.7,10.7S15,34.2,20.9,34.2z"/>
</g>
</svg>
