<svg xmlns="http://www.w3.org/2000/svg" viewBox="0 0 46 46"><defs><style>.cls-1{fill:#00b1ff;}.cls-1,.cls-2,.cls-3{stroke:#fff;stroke-miterlimit:10;}.cls-2{fill:#ffbb50;}.cls-3{fill:#ffe15d;}</style></defs><title>Risorsa 3Serenogiorno</title><g id="Livello_2" data-name="Livello 2"><g id="Livello_2-2" data-name="Livello 2"><path class="cls-1" d="M36.5.5H9.5a9,9,0,0,0-9,9v27a9,9,0,0,0,9,9h27a9,9,0,0,0,9-9V9.5A9,9,0,0,0,36.5.5ZM28.27,44.69A28.77,28.77,0,0,0,2.66,36.77,28.82,28.82,0,0,0,2.28,10h0A28.83,28.83,0,0,0,27.66,1.31h0L28,3.2A25.21,25.21,0,0,0,42,22l1.72.82A28.8,28.8,0,0,0,28.27,44.69Z"/><path class="cls-2" d="M28,3.2l-.3-1.89h0A28.83,28.83,0,0,1,2.28,10h0a28.82,28.82,0,0,1,.38,26.81,28.77,28.77,0,0,1,25.61,7.92A28.8,28.8,0,0,1,43.72,22.78L42,22A25.21,25.21,0,0,1,28,3.2Zm-7.47,30A10.23,10.23,0,1,1,30.71,23,10.22,10.22,0,0,1,20.49,33.22Z"/><circle class="cls-3" cx="20.49" cy="23" r="10.23"/></g></g></svg>