<svg width="115" height="115" viewBox="0 0 115 115" fill="none" xmlns="http://www.w3.org/2000/svg">
<path d="M92 1.38H23.0001C11.0032 1.38 1.27783 11.1054 1.27783 23.1022V92.1022C1.27783 104.099 11.0032 113.824 23.0001 113.824H92C103.997 113.824 113.722 104.099 113.722 92.1022V23.1022C113.722 11.1054 103.997 1.38 92 1.38Z" fill="#00B1FF"/>
<path d="M92 2.55556C97.4222 2.55556 102.622 4.70952 106.456 8.5436C110.29 12.3777 112.444 17.5778 112.444 23V92C112.444 97.4222 110.29 102.622 106.456 106.456C102.622 110.29 97.4222 112.444 92 112.444H23C17.5778 112.444 12.3777 110.29 8.5436 106.456C4.70952 102.622 2.55556 97.4222 2.55556 92V23C2.55556 17.5778 4.70952 12.3777 8.5436 8.5436C12.3777 4.70952 17.5778 2.55556 23 2.55556H92ZM92 0H23C16.9 0 11.0499 2.42321 6.73654 6.73654C2.42321 11.0499 0 16.9 0 23L0 92C0 98.1 2.42321 103.95 6.73654 108.263C11.0499 112.577 16.9 115 23 115H92C98.1 115 103.95 112.577 108.263 108.263C112.577 103.95 115 98.1 115 92V23C115 16.9 112.577 11.0499 108.263 6.73654C103.95 2.42321 98.1 0 92 0V0Z" fill="white"/>
<path d="M70.0475 7.51322L69.2808 2.75989C61.1601 11.3349 51.0747 17.805 39.8949 21.6117C28.7152 25.4184 16.7771 26.4474 5.11084 24.6099C10.7501 34.9831 13.7849 46.571 13.954 58.3768C14.1232 70.1826 11.4217 81.8527 6.08195 92.3832C17.6937 90.2349 29.6534 90.9382 40.9333 94.4325C52.2133 97.9269 62.476 104.108 70.8397 112.444C72.3637 100.73 76.7149 89.5633 83.5179 79.9063C90.321 70.2494 99.3715 62.3928 109.889 57.0143L105.519 54.9443C96.2011 50.5101 88.1029 43.8748 81.923 35.6112C75.7431 27.3476 71.6674 17.7041 70.0475 7.51322ZM51.1108 83.4388C45.9969 83.4337 40.9992 81.9126 36.7495 79.0678C32.4999 76.2229 29.189 72.1821 27.2355 67.4559C25.282 62.7298 24.7734 57.5305 25.7742 52.5154C26.775 47.5003 29.2402 42.8945 32.8581 39.2802C36.476 35.6658 41.0842 33.2052 46.1003 32.2094C51.1164 31.2136 56.3151 31.7272 61.0393 33.6854C65.7635 35.6436 69.8012 38.9585 72.6418 43.2109C75.4825 47.4634 76.9986 52.4626 76.9986 57.5766C76.9986 60.975 76.3288 64.3401 75.0275 67.4795C73.7262 70.6189 71.819 73.4711 69.4147 75.8729C67.0105 78.2748 64.1564 80.1793 61.0157 81.4775C57.875 82.7757 54.5093 83.4421 51.1108 83.4388Z" fill="#FFC430" stroke="white" stroke-miterlimit="10"/>
<path d="M51.162 83.4387C65.4453 83.4387 77.0243 71.8598 77.0243 57.5765C77.0243 43.2931 65.4453 31.7142 51.162 31.7142C36.8787 31.7142 25.2998 43.2931 25.2998 57.5765C25.2998 71.8598 36.8787 83.4387 51.162 83.4387Z" fill="#FFD700" stroke="white" stroke-miterlimit="10"/>
<path d="M1.77797 92.0018V92.0001V91.0048C4.52643 87.0102 8.14498 83.69 12.3621 81.2944C16.6195 78.8759 21.3738 77.464 26.2609 77.1667H26.9869H27.2959L27.4341 76.8903L27.7652 76.228C27.7654 76.2276 27.7656 76.2273 27.7657 76.227C34.3116 63.2876 46.4184 55.2916 59.3647 55.2912C65.9194 55.3177 72.3174 57.2985 77.7404 60.9804L77.7439 60.9827L78.7406 61.6472L79.1273 61.905L79.4126 61.5381L80.1282 60.6181L80.1283 60.6182L80.1332 60.6116C82.1803 57.8883 84.8192 55.6655 87.8506 54.1108C90.8797 52.5573 94.2218 51.7114 97.6251 51.6368C100.565 51.6693 103.469 52.2939 106.162 53.4734C108.798 54.6275 111.18 56.2897 113.171 58.3643V91.9995C113.165 97.6261 110.927 103.02 106.948 106.999C102.969 110.978 97.5751 113.216 91.9485 113.222H91.9483L23.0008 113.324C23.0005 113.324 23.0003 113.324 23 113.324C20.2058 113.321 17.4396 112.767 14.8599 111.693C12.28 110.619 9.93731 109.047 7.96594 107.066C5.99456 105.085 4.43326 102.735 3.37143 100.15C2.3096 97.5653 1.76811 94.7963 1.77797 92.0018Z" fill="white" stroke="white"/>
<path d="M97.6733 52.4657C103.236 52.5437 108.543 54.8118 112.444 58.7779V92.0001C112.444 97.4223 110.29 102.622 106.456 106.457C102.622 110.291 97.4222 112.445 92 112.445H23C17.5778 112.445 12.3777 110.291 8.5436 106.457C4.70952 102.622 2.55556 97.4223 2.55556 92.0001V91.259C5.24857 87.387 8.78364 84.1753 12.8954 81.8649C17.0072 79.5545 21.5889 78.2054 26.2967 77.919H27.7789L28.4689 76.5901C34.8578 63.8123 46.69 56.1457 59.3656 56.1457C65.7506 56.1776 71.9803 58.1177 77.2544 61.7168L79.2222 63.0201L80.6789 61.1801C82.6617 58.5444 85.2168 56.3929 88.1517 54.8879C91.0866 53.3828 94.3247 52.5633 97.6222 52.4912L97.6733 52.4657ZM97.6222 49.9357C93.938 49.9945 90.3161 50.8956 87.0338 52.57C83.7515 54.2443 80.8959 56.6476 78.6856 59.5957C72.9797 55.7395 66.2523 53.675 59.3656 53.6668C45.1822 53.6668 32.8133 62.4834 26.1433 75.5679C20.9254 75.8769 15.8499 77.3897 11.3143 79.9878C6.77871 82.5859 2.90616 86.1988 0 90.5434L0 92.0001C0 98.1001 2.42321 103.95 6.73654 108.264C11.0499 112.577 16.9 115 23 115H92C98.1 115 103.95 112.577 108.263 108.264C112.577 103.95 115 98.1001 115 92.0001V57.7046C112.792 55.3068 110.114 53.3889 107.134 52.07C104.153 50.751 100.933 50.0594 97.6733 50.0379L97.6222 49.9357Z" fill="white"/>
</svg>
