<?xml version="1.0" encoding="utf-8"?>
<!-- Generator: Adobe Illustrator 23.0.0, SVG Export Plug-In . SVG Version: 6.00 Build 0)  -->
<svg version="1.1" id="Livello_1" xmlns="http://www.w3.org/2000/svg" xmlns:xlink="http://www.w3.org/1999/xlink" x="0px" y="0px"
	 viewBox="0 0 115 115" style="enable-background:new 0 0 115 115;" xml:space="preserve">
<style type="text/css">
	.st0{fill:#00B1FF;stroke:#FFFFFF;stroke-miterlimit:10;}
	.st1{fill:#FFFFFF;stroke:#FFFFFF;stroke-miterlimit:10;}
	.st2{fill:#FFC430;stroke:#FFFFFF;stroke-miterlimit:10;}
	.st3{fill:#FFD700;stroke:#FFFFFF;stroke-miterlimit:10;}
	.st4{fill:#FFFFFF;stroke:#FFFFFF;}
	.st5{fill:#FFFFFF;}
</style>
<path class="st0" d="M92.7,0.2H22.3C10,0.2,0.1,10.1,0.1,22.4v70.4C0.1,105,10,115,22.3,115h70.4c12.2,0,22.2-9.9,22.2-22.2V22.4
	C114.9,10.1,105,0.2,92.7,0.2z"/>
<path class="st1" d="M92,2.6c5.4,0,10.6,2.2,14.5,6c3.8,3.8,6,9,6,14.5v69c0,5.4-2.2,10.6-6,14.5s-9,6-14.5,6H23
	c-5.4,0-10.6-2.2-14.5-6c-3.8-3.8-6-9-6-14.5V23c0-5.4,2.2-10.6,6-14.5c3.8-3.8,9-6,14.5-6L92,2.6L92,2.6z M92,0H23
	C16.9,0,11,2.4,6.7,6.7S0,16.9,0,23v69c0,6.1,2.4,11.9,6.7,16.3C11,112.6,16.9,115,23,115h69c6.1,0,11.9-2.4,16.3-6.7
	c4.3-4.3,6.7-10.2,6.7-16.3V23c0-6.1-2.4-12-6.7-16.3C103.9,2.4,98.1,0,92,0L92,0z"/>
<path class="st2" d="M70,7.5l-0.8-4.8c-8.1,8.6-18.2,15-29.4,18.9c-11.2,3.8-23.1,4.8-34.8,3c5.6,10.4,8.7,22,8.8,33.8
	c0.2,11.8-2.5,23.5-7.9,34c11.6-2.1,23.6-1.4,34.9,2c11.3,3.5,21.5,9.7,29.9,18c1.5-11.7,5.9-22.9,12.7-32.5
	c6.8-9.7,15.9-17.5,26.4-22.9l-4.4-2.1C96.1,50.5,88,43.8,81.8,35.6C75.7,27.3,71.7,17.7,70,7.5z M51.1,83.4
	C46,83.4,41,81.9,36.7,79c-4.2-2.8-7.6-6.9-9.5-11.6c-2-4.7-2.5-9.9-1.5-14.9s3.5-9.6,7.1-13.2c3.6-3.6,8.2-6.1,13.2-7.1
	s10.2-0.5,14.9,1.5s8.8,5.3,11.6,9.5c2.8,4.3,4.4,9.3,4.4,14.4c0,3.4-0.7,6.8-2,9.9s-3.2,6-5.6,8.4s-5.3,4.3-8.4,5.6
	S54.5,83.4,51.1,83.4z"/>
<path class="st3" d="M51.2,83.4C65.4,83.4,77,71.9,77,57.6S65.4,31.7,51.1,31.7S25.3,43.3,25.3,57.6S36.9,83.4,51.2,83.4z"/>
<path class="st4" d="M1.8,92L1.8,92v-1c2.7-4,6.4-7.3,10.6-9.7c4.3-2.4,9-3.8,13.9-4.1H27h0.3l0.1-0.3l0.3-0.7l0,0
	c6.5-12.9,18.7-20.9,31.6-20.9c6.6,0,13,2,18.4,5.7l0,0l1,0.7l0.4,0.3l0.3-0.4l0.7-0.9l0,0l0,0c2-2.7,4.7-4.9,7.7-6.5
	s6.4-2.4,9.8-2.5c2.9,0,5.8,0.7,8.5,1.8c2.6,1.2,5,2.8,7,4.9V92c0,5.6-2.2,11-6.2,15s-9.4,6.2-15,6.2l0,0L23,113.3l0,0
	c-2.8,0-5.6-0.6-8.1-1.6c-2.6-1.1-4.9-2.6-6.9-4.6s-3.5-4.3-4.6-6.9C2.3,97.6,1.8,94.8,1.8,92z"/>
<path class="st5" d="M97.7,52.5c5.6,0.1,10.9,2.3,14.8,6.3V92c0,5.4-2.2,10.6-6,14.5c-3.8,3.8-9,6-14.5,6H23c-5.4,0-10.6-2.2-14.5-6
	c-3.8-3.8-6-9-6-14.5v-0.7c2.7-3.9,6.2-7.1,10.3-9.4s8.7-3.7,13.4-3.9h1.5l0.7-1.3c6.4-12.8,18.2-20.4,30.9-20.4
	c6.4,0,12.6,2,17.9,5.6l2,1.3l1.5-1.8c2-2.6,4.5-4.8,7.5-6.3C91.1,53.4,94.3,52.6,97.7,52.5L97.7,52.5z M97.6,49.9
	c-3.7,0.1-7.3,1-10.6,2.6c-3.3,1.7-6.1,4.1-8.3,7c-5.7-3.9-12.4-5.9-19.3-5.9c-14.2,0-26.6,8.8-33.2,21.9
	c-5.2,0.3-10.3,1.8-14.8,4.4C6.8,82.6,2.9,86.2,0,90.5V92c0,6.1,2.4,11.9,6.7,16.3C11,112.6,16.9,115,23,115h69
	c6.1,0,11.9-2.4,16.3-6.7c4.3-4.3,6.7-10.2,6.7-16.3V57.7c-2.2-2.4-4.9-4.3-7.9-5.6s-6.2-2-9.5-2V49.9z"/>
</svg>
