<svg xmlns="http://www.w3.org/2000/svg" viewBox="0 0 45 45.06"><defs><style>.cls-1{fill:#006ae8;}.cls-2{fill:#fff;}.cls-3{fill:#ffbb50;}.cls-3,.cls-4{stroke:#fff;stroke-miterlimit:10;}.cls-4{fill:#ffe15d;}</style></defs><title>Risorsa 10Copertogiorno</title><g id="Livello_2" data-name="Livello 2"><g id="Livello_2-2" data-name="Livello 2"><rect class="cls-1" x="0.5" y="0.54" width="44" height="44" rx="8.5"/><path class="cls-2" d="M36,1a8,8,0,0,1,8,8V36a8,8,0,0,1-8,8H9a8,8,0,0,1-8-8V9A8,8,0,0,1,9,1H36m0-1H9A9,9,0,0,0,0,9V36a9,9,0,0,0,9,9H36a9,9,0,0,0,9-9V9a9,9,0,0,0-9-9Z"/><path class="cls-3" d="M27.41,2.94l-.3-1.86h0A28.48,28.48,0,0,1,2,9.63H2a28.52,28.52,0,0,1,.38,26.52A28.54,28.54,0,0,1,27.72,44,28.49,28.49,0,0,1,43,22.31l-1.71-.81A24.88,24.88,0,0,1,27.41,2.94ZM20,32.65A10.12,10.12,0,1,1,30.13,22.53,10.12,10.12,0,0,1,20,32.65Z"/><circle class="cls-4" cx="20.02" cy="22.53" r="10.12"/><path class="cls-2" d="M9,44.54A8.51,8.51,0,0,1,.5,36v-.45A12.75,12.75,0,0,1,10.27,30h.29l.13-.26c2.59-5.12,7.39-8.3,12.54-8.3a13.09,13.09,0,0,1,7.3,2.26l.39.26.28-.36a9,9,0,0,1,7-3.59,8.76,8.76,0,0,1,6.28,2.75V36a8.51,8.51,0,0,1-8.5,8.5Z"/><path class="cls-2" d="M38.22,20.53A8.27,8.27,0,0,1,44,23V36a8,8,0,0,1-8,8H9a8,8,0,0,1-8-8v-.29a12.22,12.22,0,0,1,9.29-5.22l.58,0,.27-.52c2.5-5,7.13-8,12.09-8a12.53,12.53,0,0,1,7,2.18l.77.51.57-.72a8.53,8.53,0,0,1,6.63-3.4m0-1a9.45,9.45,0,0,0-7.41,3.78A13.53,13.53,0,0,0,23.23,21c-5.55,0-10.39,3.45-13,8.57A13.25,13.25,0,0,0,0,35.43V36a9,9,0,0,0,9,9H36a9,9,0,0,0,9-9V22.58a9.3,9.3,0,0,0-6.78-3Z"/></g></g></svg>