<?xml version="1.0" encoding="utf-8"?>
<!-- Generator: Adobe Illustrator 23.0.0, SVG Export Plug-In . SVG Version: 6.00 Build 0)  -->
<svg version="1.1" id="Livello_1" xmlns="http://www.w3.org/2000/svg" xmlns:xlink="http://www.w3.org/1999/xlink" x="0px" y="0px"
	 viewBox="0 0 47 47" style="enable-background:new 0 0 47 47;" xml:space="preserve">
<style type="text/css">
	.st0{fill:#00B1FF;stroke:#FFFFFF;stroke-miterlimit:10;}
	.st1{fill:#FFFFFF;}
</style>
<path class="st0" d="M37.6,0H9.4C6.9,0,4.5,1,2.8,2.8S0,6.9,0,9.4v28.2c0,2.5,1,4.9,2.8,6.6C4.5,46,6.9,47,9.4,47h28.2
	c2.5,0,4.9-1,6.6-2.8c1.8-1.8,2.8-4.2,2.8-6.6V9.4c0-2.5-1-4.9-2.8-6.6C42.5,1,40.1,0,37.6,0z M5.2,32.5c0-0.2,0-0.4,0-0.6
	c0-5.7,4-10.4,9-10.6c0.8-1.7,2-3.1,3.6-4.2c1.6-1,3.4-1.6,5.2-1.6c1.8,0,3.6,0.6,5.1,1.6c0.6-0.8,1.3-1.4,2.2-1.9
	c0.9-0.4,1.8-0.7,2.8-0.7c3.7,0,6.8,3.5,6.8,7.7c0,1.9-0.6,3.8-1.9,5.3c1,0.5,1.8,1.2,2.4,2c0.7,0.8,1.1,1.8,1.3,2.9H5.2z"/>
<path class="st1" d="M6.5,31.6c0-5.2,3.6-9.5,8.1-9.7h0.3l0.1-0.3c0.7-1.5,1.8-2.8,3.2-3.8c1.4-0.9,3.1-1.5,4.8-1.5
	c1.7,0,3.3,0.5,4.6,1.4l0.4,0.3l0.3-0.4c0.5-0.7,1.2-1.2,1.9-1.6c0.8-0.4,1.6-0.6,2.5-0.6c3.3,0,6,3.1,6,6.9c0,1.7-0.6,3.4-1.7,4.8
	l-0.4,0.5l0.6,0.3c0.8,0.4,1.4,0.9,2,1.5c0.5,0.6,1,1.4,1.2,2.2L6.5,31.6z"/>
<path class="st1" d="M32.7,15.9c3,0,5.5,2.9,5.5,6.4c0,1.6-0.5,3.2-1.6,4.5l-0.8,1l1.2,0.5c1.2,0.6,2.1,1.5,2.6,2.8H7
	c0.2-4.8,3.5-8.5,7.6-8.7h0.6l0.3-0.5c0.7-1.4,1.7-2.7,3.1-3.6c1.3-0.9,2.9-1.4,4.5-1.4c1.6,0,3.1,0.5,4.4,1.4l0.8,0.5l0.6-0.7
	c0.5-0.6,1.1-1.1,1.8-1.5C31.2,16.1,31.9,15.9,32.7,15.9L32.7,15.9z M32.7,14.9c-0.9,0-1.9,0.2-2.7,0.7s-1.6,1-2.1,1.8
	c-1.4-1-3.2-1.5-4.9-1.5c-1.8,0-3.5,0.6-5,1.6c-1.5,1-2.7,2.4-3.4,4C9.8,21.6,6,26.1,6,31.6c0,0.2,0,0.3,0,0.5h35
	c-0.2-1-0.6-1.9-1.3-2.7c-0.6-0.8-1.4-1.5-2.3-1.9c1.2-1.4,1.8-3.3,1.8-5.1C39.2,18.2,36.3,14.9,32.7,14.9z"/>
</svg>
