<?xml version="1.0" encoding="utf-8"?>
<!-- Generator: Adobe Illustrator 23.0.0, SVG Export Plug-In . SVG Version: 6.00 Build 0)  -->
<svg version="1.1" id="Livello_1" xmlns="http://www.w3.org/2000/svg" xmlns:xlink="http://www.w3.org/1999/xlink" x="0px" y="0px"
	 viewBox="0 0 47 47" style="enable-background:new 0 0 47 47;" xml:space="preserve">
<style type="text/css">
	.st0{fill:#00B1FF;stroke:#FFFFFF;stroke-miterlimit:10;}
	.st1{fill:#AAAAAA;}
	.st2{fill:#FFFFFF;}
</style>
<g>
	<path class="st0" d="M37.6,0H9.4C6.9,0,4.5,0.9,2.7,2.7S0,6.9,0,9.4v28.2c0,2.5,0.9,4.9,2.7,6.7C4.5,46.1,6.9,47,9.4,47h28.2
		c2.5,0,4.9-0.9,6.7-2.7c1.8-1.8,2.7-4.2,2.7-6.7V9.4c0-2.5-0.9-4.9-2.7-6.7C42.5,0.9,40.1,0,37.6,0z M5.2,32.5c0-0.2,0-0.4,0-0.5
		c0-5.7,4-10.4,9-10.7c0.7-1.7,2-3.1,3.6-4.2c1.6-1,3.3-1.6,5.2-1.7c1.9,0,3.7,0.5,5.1,1.6c0.6-0.7,1.4-1.5,2.2-1.9
		c0.8-0.4,1.9-0.7,2.8-0.7c3.8,0,6.8,3.4,6.8,7.7c0,2-0.6,3.9-1.9,5.3c0.9,0.5,1.8,1.1,2.4,2c0.6,0.8,1.1,1.8,1.4,2.8H5.2V32.5z"/>
	<path class="st1" d="M5.7,32c0-5.4,3.8-9.9,8.5-10.1h0.3l0.1-0.3c0.7-1.6,1.9-2.9,3.3-4c1.5-0.9,3.2-1.6,5-1.6
		c1.8,0,3.4,0.5,4.8,1.5l0.4,0.3l0.3-0.4c0.5-0.7,1.3-1.3,2-1.7c0.8-0.4,1.7-0.6,2.6-0.6c3.4,0,6.3,3.2,6.3,7.2c0,1.8-0.6,3.6-1.8,5
		l-0.4,0.5l0.6,0.3c0.8,0.4,1.5,0.9,2.1,1.6c0.5,0.6,1,1.5,1.3,2.3L5.7,32z"/>
	<path class="st2" d="M33.1,15.6c3.1,0,5.7,3,5.7,6.7c0,1.7-0.5,3.3-1.7,4.7l-0.8,1l1.3,0.5c1.3,0.6,2.2,1.6,2.7,2.9h-34
		c0.2-5,3.7-8.9,7.9-9.1h0.6l0.3-0.5c0.7-1.5,1.8-2.8,3.2-3.8c1.4-0.9,3-1.5,4.7-1.5c1.7,0,3.2,0.5,4.6,1.5l0.8,0.5l0.6-0.7
		c0.5-0.6,1.1-1.1,1.9-1.6C31.5,15.8,32.3,15.6,33.1,15.6L33.1,15.6z M33.1,14.5c-0.9,0-2,0.2-2.8,0.7s-1.7,1-2.2,1.9
		c-1.5-1-3.3-1.6-5.1-1.6c-1.9,0-3.7,0.6-5.2,1.7c-1.6,1-2.8,2.5-3.6,4.2c-5,0.1-9,4.8-9,10.5c0,0.2,0,0.3,0,0.5h36.6
		c-0.2-1-0.6-2-1.4-2.8c-0.6-0.8-1.5-1.6-2.4-2c1.3-1.5,1.9-3.4,1.9-5.3C39.9,18,36.9,14.5,33.1,14.5z"/>
</g>
</svg>
