<svg xmlns="http://www.w3.org/2000/svg" xmlns:xlink="http://www.w3.org/1999/xlink" viewBox="0 0 46 46"><defs><style>.cls-1{fill:#006ae8;}.cls-1,.cls-10,.cls-11,.cls-12,.cls-13,.cls-2,.cls-3,.cls-5,.cls-6,.cls-7,.cls-8,.cls-9{stroke:#fff;stroke-miterlimit:10;}.cls-2{fill:#ffbb50;}.cls-3{fill:#ffe15d;}.cls-4{fill:#fff;}.cls-10,.cls-11,.cls-12,.cls-13,.cls-5,.cls-6,.cls-7,.cls-8,.cls-9{stroke-width:0.25px;}.cls-5{fill:url(#Sfumatura_senza_nome_5);}.cls-6{fill:url(#Sfumatura_senza_nome_5-2);}.cls-7{fill:url(#Sfumatura_senza_nome_5-3);}.cls-8{fill:url(#Sfumatura_senza_nome_5-4);}.cls-9{fill:url(#Sfumatura_senza_nome_5-5);}.cls-10{fill:url(#Sfumatura_senza_nome_5-6);}.cls-11{fill:url(#Sfumatura_senza_nome_5-7);}.cls-12{fill:url(#Sfumatura_senza_nome_5-8);}.cls-13{fill:url(#Sfumatura_senza_nome_5-9);}</style><linearGradient id="Sfumatura_senza_nome_5" x1="11.91" y1="37.62" x2="14.3" y2="37.62" gradientUnits="userSpaceOnUse"><stop offset="0.19" stop-color="#cce0f4"/><stop offset="0.23" stop-color="#c3dcf2"/><stop offset="0.3" stop-color="#a9d2ee"/><stop offset="0.39" stop-color="#80c2e7"/><stop offset="0.5" stop-color="#47acde"/><stop offset="0.57" stop-color="#1e9cd7"/><stop offset="0.87" stop-color="#0075be"/><stop offset="0.99" stop-color="#005b97"/></linearGradient><linearGradient id="Sfumatura_senza_nome_5-2" x1="17.34" y1="37.62" x2="19.73" y2="37.62" xlink:href="#Sfumatura_senza_nome_5"/><linearGradient id="Sfumatura_senza_nome_5-3" x1="22.78" y1="37.62" x2="25.17" y2="37.62" xlink:href="#Sfumatura_senza_nome_5"/><linearGradient id="Sfumatura_senza_nome_5-4" x1="28.22" y1="37.62" x2="30.61" y2="37.62" xlink:href="#Sfumatura_senza_nome_5"/><linearGradient id="Sfumatura_senza_nome_5-5" x1="9.16" y1="33.25" x2="11.55" y2="33.25" xlink:href="#Sfumatura_senza_nome_5"/><linearGradient id="Sfumatura_senza_nome_5-6" x1="14.6" y1="33.25" x2="16.99" y2="33.25" xlink:href="#Sfumatura_senza_nome_5"/><linearGradient id="Sfumatura_senza_nome_5-7" x1="20.04" y1="33.25" x2="22.43" y2="33.25" xlink:href="#Sfumatura_senza_nome_5"/><linearGradient id="Sfumatura_senza_nome_5-8" x1="25.47" y1="33.25" x2="27.86" y2="33.25" xlink:href="#Sfumatura_senza_nome_5"/><linearGradient id="Sfumatura_senza_nome_5-9" x1="30.91" y1="33.25" x2="33.3" y2="33.25" xlink:href="#Sfumatura_senza_nome_5"/></defs><title>Risorsa 21Pioggiagiorno</title><g id="Livello_2" data-name="Livello 2"><g id="Livello_2-2" data-name="Livello 2"><path class="cls-1" d="M36.5.5H9.5a9,9,0,0,0-9,9v27a9,9,0,0,0,9,9h27a9,9,0,0,0,9-9V9.5A9,9,0,0,0,36.5.5ZM28.27,44.69A28.77,28.77,0,0,0,2.66,36.77,28.82,28.82,0,0,0,2.28,10h0A28.83,28.83,0,0,0,27.66,1.31h0L28,3.2A25.21,25.21,0,0,0,42,22l1.72.82A28.8,28.8,0,0,0,28.27,44.69Z"/><path class="cls-2" d="M28,3.2l-.3-1.89h0A28.83,28.83,0,0,1,2.28,10h0a28.82,28.82,0,0,1,.38,26.81,28.77,28.77,0,0,1,25.61,7.92A28.8,28.8,0,0,1,43.72,22.78L42,22A25.21,25.21,0,0,1,28,3.2Zm-7.47,30A10.23,10.23,0,1,1,30.71,23,10.22,10.22,0,0,1,20.49,33.22Z"/><circle class="cls-3" cx="20.49" cy="23" r="10.23"/><path class="cls-4" d="M2.5,29.5v-.13c0-6.34,4.31-11.48,9.82-11.7l.3,0,.13-.26A11,11,0,0,1,22.4,11,10.08,10.08,0,0,1,28,12.74l.38.26.29-.37a6.92,6.92,0,0,1,5.37-2.75c4,0,7.27,3.76,7.27,8.38a9.08,9.08,0,0,1-2,5.83l-.42.5.6.27a7.49,7.49,0,0,1,3.89,4.64Z"/><path class="cls-4" d="M34.06,10.38c3.74,0,6.77,3.54,6.77,7.88a8.54,8.54,0,0,1-1.93,5.51l-.85,1,1.2.55A6.86,6.86,0,0,1,42.64,29H3c.16-5.9,4.2-10.63,9.33-10.83l.59,0,.26-.52a10.54,10.54,0,0,1,9.21-6.13,9.61,9.61,0,0,1,5.34,1.66l.77.52.57-.73a6.43,6.43,0,0,1,5-2.56m0-1a7.35,7.35,0,0,0-5.76,2.94,10.55,10.55,0,0,0-5.9-1.83,11.49,11.49,0,0,0-10.1,6.68C6.58,17.4,2,22.77,2,29.37c0,.21,0,.42,0,.63H44a8.06,8.06,0,0,0-4.33-5.59,9.56,9.56,0,0,0,2.16-6.15c0-4.9-3.48-8.88-7.77-8.88Z"/><path class="cls-5" d="M13,34.36l-.77,3.48s-1.07,3.32,1,3,.7-3.17.7-3.17Z"/><path class="cls-6" d="M18.4,34.36l-.78,3.48s-1.07,3.32,1,3,.7-3.17.7-3.17Z"/><path class="cls-7" d="M23.84,34.36l-.78,3.48s-1.07,3.32,1,3,.7-3.17.7-3.17Z"/><path class="cls-8" d="M29.28,34.36l-.78,3.48s-1.07,3.32,1,3,.71-3.17.71-3.17Z"/><path class="cls-9" d="M10.23,30h0l-.77,3.45s-1.07,3.31,1,3,.7-3.16.7-3.16Z"/><path class="cls-10" d="M15.67,30h0l-.77,3.45s-1.07,3.31,1,3,.71-3.16.71-3.16Z"/><path class="cls-11" d="M21.11,30h0l-.77,3.45s-1.07,3.31,1,3,.7-3.16.7-3.16Z"/><path class="cls-12" d="M26.54,30h0l-.77,3.45s-1.07,3.31,1,3,.7-3.16.7-3.16Z"/><path class="cls-13" d="M32,30h0l-.77,3.45s-1.07,3.31,1,3,.7-3.16.7-3.16Z"/></g></g></svg>