<svg xmlns="http://www.w3.org/2000/svg" xmlns:xlink="http://www.w3.org/1999/xlink" viewBox="0 0 45.25 45.25"><defs><style>.cls-1{fill:#006ae8;}.cls-1,.cls-10,.cls-11,.cls-12,.cls-13,.cls-14,.cls-15,.cls-16,.cls-17,.cls-18,.cls-19,.cls-2,.cls-3,.cls-4,.cls-5,.cls-6,.cls-7,.cls-8,.cls-9{stroke:#fff;stroke-miterlimit:10;stroke-width:0.25px;}.cls-2{fill:#5e1266;}.cls-3{fill:url(#Sfumatura_senza_nome_44);}.cls-4{fill:url(#Sfumatura_senza_nome_5);}.cls-5{fill:url(#Sfumatura_senza_nome_5-2);}.cls-6{fill:url(#Sfumatura_senza_nome_5-3);}.cls-7{fill:url(#Sfumatura_senza_nome_5-4);}.cls-8{fill:url(#Sfumatura_senza_nome_5-5);}.cls-9{fill:url(#Sfumatura_senza_nome_5-6);}.cls-10{fill:url(#Sfumatura_senza_nome_5-7);}.cls-11{fill:url(#Sfumatura_senza_nome_5-8);}.cls-12{fill:url(#Sfumatura_senza_nome_5-9);}.cls-13{fill:url(#Sfumatura_senza_nome_5-10);}.cls-14{fill:url(#Sfumatura_senza_nome_5-11);}.cls-15{fill:url(#Sfumatura_senza_nome_5-12);}.cls-16{fill:url(#Sfumatura_senza_nome_5-13);}.cls-17{fill:url(#Sfumatura_senza_nome_5-14);}.cls-18{fill:url(#Sfumatura_senza_nome_5-15);}.cls-19{fill:url(#Sfumatura_senza_nome_5-16);}.cls-20{fill:#fff;}</style><linearGradient id="Sfumatura_senza_nome_44" x1="0.69" y1="24.72" x2="44.56" y2="24.72" gradientUnits="userSpaceOnUse"><stop offset="0" stop-color="#fff"/><stop offset="0.05" stop-color="#fff" stop-opacity="0.94"/><stop offset="0.71" stop-color="#fff" stop-opacity="0.27"/><stop offset="1" stop-color="#fff" stop-opacity="0"/></linearGradient><linearGradient id="Sfumatura_senza_nome_5" x1="3.35" y1="24.72" x2="5.74" y2="24.72" gradientUnits="userSpaceOnUse"><stop offset="0.19" stop-color="#cce0f4"/><stop offset="0.23" stop-color="#c3dcf2"/><stop offset="0.3" stop-color="#a9d2ee"/><stop offset="0.39" stop-color="#80c2e7"/><stop offset="0.5" stop-color="#47acde"/><stop offset="0.57" stop-color="#1e9cd7"/><stop offset="0.87" stop-color="#0075be"/><stop offset="0.99" stop-color="#005b97"/></linearGradient><linearGradient id="Sfumatura_senza_nome_5-2" x1="11.53" y1="32.36" x2="13.92" y2="32.36" xlink:href="#Sfumatura_senza_nome_5"/><linearGradient id="Sfumatura_senza_nome_5-3" x1="16.97" y1="32.36" x2="19.36" y2="32.36" xlink:href="#Sfumatura_senza_nome_5"/><linearGradient id="Sfumatura_senza_nome_5-4" x1="22.41" y1="32.36" x2="24.8" y2="32.36" xlink:href="#Sfumatura_senza_nome_5"/><linearGradient id="Sfumatura_senza_nome_5-5" x1="27.84" y1="32.36" x2="30.23" y2="32.36" xlink:href="#Sfumatura_senza_nome_5"/><linearGradient id="Sfumatura_senza_nome_5-6" x1="8.79" y1="27.98" x2="11.18" y2="27.98" xlink:href="#Sfumatura_senza_nome_5"/><linearGradient id="Sfumatura_senza_nome_5-7" x1="8.79" y1="24.72" x2="11.18" y2="24.72" xlink:href="#Sfumatura_senza_nome_5"/><linearGradient id="Sfumatura_senza_nome_5-8" x1="14.22" y1="27.98" x2="16.61" y2="27.98" xlink:href="#Sfumatura_senza_nome_5"/><linearGradient id="Sfumatura_senza_nome_5-9" x1="14.22" y1="24.72" x2="16.61" y2="24.72" xlink:href="#Sfumatura_senza_nome_5"/><linearGradient id="Sfumatura_senza_nome_5-10" x1="19.66" y1="27.98" x2="22.05" y2="27.98" xlink:href="#Sfumatura_senza_nome_5"/><linearGradient id="Sfumatura_senza_nome_5-11" x1="19.66" y1="24.72" x2="22.05" y2="24.72" xlink:href="#Sfumatura_senza_nome_5"/><linearGradient id="Sfumatura_senza_nome_5-12" x1="25.1" y1="27.98" x2="27.49" y2="27.98" xlink:href="#Sfumatura_senza_nome_5"/><linearGradient id="Sfumatura_senza_nome_5-13" x1="25.1" y1="24.72" x2="27.49" y2="24.72" xlink:href="#Sfumatura_senza_nome_5"/><linearGradient id="Sfumatura_senza_nome_5-14" x1="30.54" y1="27.98" x2="32.93" y2="27.98" xlink:href="#Sfumatura_senza_nome_5"/><linearGradient id="Sfumatura_senza_nome_5-15" x1="30.54" y1="24.72" x2="32.93" y2="24.72" xlink:href="#Sfumatura_senza_nome_5"/><linearGradient id="Sfumatura_senza_nome_5-16" x1="35.97" y1="24.72" x2="38.36" y2="24.72" xlink:href="#Sfumatura_senza_nome_5"/></defs><title>Risorsa 20Pioggialeggera</title><g id="Livello_2" data-name="Livello 2"><g id="Livello_2-2" data-name="Livello 2"><path class="cls-1" d="M36.13.13h-27a9,9,0,0,0-9,9v27a9,9,0,0,0,9,9h27a9,9,0,0,0,9-9v-27A9,9,0,0,0,36.13.13Zm-33,24c0-5.5,3.81-10,8.58-10.17a9.58,9.58,0,0,1,8.42-5.56A8.82,8.82,0,0,1,25,9.89a6.11,6.11,0,0,1,4.8-2.44c3.58,0,6.48,3.31,6.48,7.4A8,8,0,0,1,34.51,20a6.72,6.72,0,0,1,3.62,4.66h-35C3.14,24.45,3.13,24.28,3.13,24.1Zm33.9.64v0Zm-32.63,0v0ZM10,31.21c-2,.29-1-3-1-3l.77-3.45v0l.89,3.3S12.09,30.92,10,31.21Zm2.75,4.4c-2,.29-1-3-1-3l.78-3.48.9,3.34S14.83,35.32,12.79,35.61Zm2.69-4.4c-2.05.29-1-3-1-3l.77-3.45v0l.89,3.3S17.52,30.92,15.48,31.21Zm2.74,4.4c-2,.29-1-3-1-3L18,29.1l.9,3.34S20.27,35.32,18.22,35.61Zm2.7-4.4c-2.05.29-1-3-1-3l.77-3.45v0l.89,3.3S23,30.92,20.92,31.21Zm2.74,4.4c-2,.29-1-3-1-3l.77-3.48.9,3.34S25.71,35.32,23.66,35.61Zm2.69-4.4c-2,.29-1-3-1-3l.77-3.45v0l.89,3.3S28.4,30.92,26.35,31.21Zm2.75,4.4c-2.05.29-1-3-1-3l.78-3.48.9,3.34S31.14,35.32,29.1,35.61Zm2.69-4.4c-2,.29-1-3-1-3l.77-3.45v0l.88,3.3S33.84,30.92,31.79,31.21Z"/><polygon class="cls-2" points="4.4 24.74 4.42 24.74 4.41 24.7 4.4 24.74"/><polygon class="cls-3" points="4.4 24.74 4.42 24.74 4.41 24.7 4.4 24.74"/><polygon class="cls-4" points="4.4 24.74 4.42 24.74 4.41 24.7 4.4 24.74"/><path class="cls-2" d="M12.59,29.1l-.78,3.48s-1.07,3.32,1,3,.7-3.17.7-3.17Z"/><path class="cls-5" d="M12.59,29.1l-.78,3.48s-1.07,3.32,1,3,.7-3.17.7-3.17Z"/><path class="cls-2" d="M18,29.1l-.78,3.48s-1.07,3.32,1,3,.71-3.17.71-3.17Z"/><path class="cls-6" d="M18,29.1l-.78,3.48s-1.07,3.32,1,3,.71-3.17.71-3.17Z"/><path class="cls-2" d="M23.46,29.1l-.77,3.48s-1.07,3.32,1,3,.7-3.17.7-3.17Z"/><path class="cls-7" d="M23.46,29.1l-.77,3.48s-1.07,3.32,1,3,.7-3.17.7-3.17Z"/><path class="cls-2" d="M28.9,29.1l-.78,3.48s-1.07,3.32,1,3,.7-3.17.7-3.17Z"/><path class="cls-8" d="M28.9,29.1l-.78,3.48s-1.07,3.32,1,3,.7-3.17.7-3.17Z"/><path class="cls-2" d="M9.85,24.74h0l-.77,3.45s-1.07,3.31,1,3,.7-3.17.7-3.17Z"/><path class="cls-9" d="M9.85,24.74h0l-.77,3.45s-1.07,3.31,1,3,.7-3.17.7-3.17Z"/><polygon class="cls-2" points="9.85 24.7 9.84 24.74 9.86 24.74 9.85 24.7"/><polygon class="cls-3" points="9.85 24.7 9.84 24.74 9.86 24.74 9.85 24.7"/><polygon class="cls-10" points="9.85 24.7 9.84 24.74 9.86 24.74 9.85 24.7"/><path class="cls-2" d="M15.29,24.74h0l-.77,3.45s-1.07,3.31,1,3,.7-3.17.7-3.17Z"/><path class="cls-11" d="M15.29,24.74h0l-.77,3.45s-1.07,3.31,1,3,.7-3.17.7-3.17Z"/><polygon class="cls-2" points="15.28 24.7 15.28 24.74 15.29 24.74 15.28 24.7"/><polygon class="cls-3" points="15.28 24.7 15.28 24.74 15.29 24.74 15.28 24.7"/><polygon class="cls-12" points="15.28 24.7 15.28 24.74 15.29 24.74 15.28 24.7"/><path class="cls-2" d="M20.73,24.74h0l-.77,3.45s-1.07,3.31,1,3,.7-3.17.7-3.17Z"/><path class="cls-13" d="M20.73,24.74h0l-.77,3.45s-1.07,3.31,1,3,.7-3.17.7-3.17Z"/><polygon class="cls-2" points="20.72 24.7 20.71 24.74 20.73 24.74 20.72 24.7"/><polygon class="cls-3" points="20.72 24.7 20.71 24.74 20.73 24.74 20.72 24.7"/><polygon class="cls-14" points="20.72 24.7 20.71 24.74 20.73 24.74 20.72 24.7"/><path class="cls-2" d="M26.17,24.74h0l-.77,3.45s-1.07,3.31,1,3,.71-3.17.71-3.17Z"/><path class="cls-15" d="M26.17,24.74h0l-.77,3.45s-1.07,3.31,1,3,.71-3.17.71-3.17Z"/><polygon class="cls-2" points="26.16 24.7 26.15 24.74 26.17 24.74 26.16 24.7"/><polygon class="cls-3" points="26.16 24.7 26.15 24.74 26.17 24.74 26.16 24.7"/><polygon class="cls-16" points="26.16 24.7 26.15 24.74 26.17 24.74 26.16 24.7"/><path class="cls-2" d="M31.61,24.74h0l-.77,3.45s-1.07,3.31,1,3,.7-3.17.7-3.17Z"/><path class="cls-17" d="M31.61,24.74h0l-.77,3.45s-1.07,3.31,1,3,.7-3.17.7-3.17Z"/><polygon class="cls-2" points="31.6 24.7 31.59 24.74 31.61 24.74 31.6 24.7"/><polygon class="cls-3" points="31.6 24.7 31.59 24.74 31.61 24.74 31.6 24.7"/><polygon class="cls-18" points="31.6 24.7 31.59 24.74 31.61 24.74 31.6 24.7"/><polygon class="cls-2" points="37.02 24.74 37.04 24.74 37.03 24.7 37.02 24.74"/><polygon class="cls-3" points="37.02 24.74 37.04 24.74 37.03 24.7 37.02 24.74"/><polygon class="cls-19" points="37.02 24.74 37.04 24.74 37.03 24.7 37.02 24.74"/><path class="cls-20" d="M3.27,24.5v-.07c0-.11,0-.22,0-.33,0-5.44,3.72-9.85,8.46-10h.08l0-.06A9.48,9.48,0,0,1,20.13,8.5,8.71,8.71,0,0,1,25,10l.1.06.07-.09a6,6,0,0,1,4.7-2.4c3.5,0,6.35,3.26,6.35,7.28a7.83,7.83,0,0,1-1.77,5l-.11.13.15.07A6.6,6.6,0,0,1,38,24.5Z"/><path class="cls-20" d="M29.84,7.7c3.44,0,6.23,3.2,6.23,7.15a7.67,7.67,0,0,1-1.75,5l-.21.26.3.13a6.44,6.44,0,0,1,3.39,4.19H3.39a2.72,2.72,0,0,1,0-.28c0-5.37,3.66-9.73,8.34-9.92h.15l.06-.13a9.36,9.36,0,0,1,8.2-5.42A8.57,8.57,0,0,1,24.9,10.1l.19.13.14-.18A5.92,5.92,0,0,1,29.84,7.7m0-.25A6.11,6.11,0,0,0,25,9.89a8.82,8.82,0,0,0-4.91-1.52,9.58,9.58,0,0,0-8.42,5.56c-4.77.19-8.58,4.67-8.58,10.17,0,.18,0,.35,0,.53h35A6.72,6.72,0,0,0,34.51,20a8,8,0,0,0,1.81-5.12c0-4.09-2.9-7.4-6.48-7.4Z"/></g></g></svg>