<?xml version="1.0" encoding="utf-8"?>
<!-- Generator: Adobe Illustrator 23.0.0, SVG Export Plug-In . SVG Version: 6.00 Build 0)  -->
<svg version="1.1" id="Livello_1" xmlns="http://www.w3.org/2000/svg" xmlns:xlink="http://www.w3.org/1999/xlink" x="0px" y="0px"
	 viewBox="0 0 47 47" style="enable-background:new 0 0 47 47;" xml:space="preserve">
<style type="text/css">
	.st0{fill:#006AE8;stroke:#FFFFFF;stroke-miterlimit:10;}
	.st1{fill:#FFD700;stroke:#FFFFFF;stroke-miterlimit:10;}
	.st2{fill:#383838;}
	.st3{fill:#FFFFFF;}
</style>
<g>
	<path class="st0" d="M37.6,0H9.4C6.9,0,4.5,1,2.8,2.8S0,6.9,0,9.4v28.2c0,2.5,1,4.9,2.8,6.6C4.5,46,6.9,47,9.4,47h28.2
		c2.5,0,4.9-1,6.6-2.8c1.8-1.8,2.8-4.2,2.8-6.6V9.4c0-2.5-1-4.9-2.8-6.6C42.5,1,40.1,0,37.6,0z M38.8,29.4L28.4,40.3l5.2-8.3h-5.2
		l5.4-7.4h-7.2l-4.4,4.8h5.2L16.9,40.3l5.2-8.3h-5.2l5.4-7.4h-7.2l-4.4,4.8h5.2L5.4,40.3l5.2-8.3H5.4l5.4-7.4H5.3c0-0.2,0-0.4,0-0.6
		c0-5.7,4-10.4,9-10.6c0.8-1.7,2-3.1,3.6-4.1c1.5-1,3.3-1.6,5.2-1.7c1.8,0,3.6,0.6,5.1,1.6c0.6-0.8,1.3-1.4,2.2-1.9
		c0.9-0.4,1.8-0.7,2.8-0.7c3.7,0,6.8,3.5,6.8,7.7c0,1.9-0.6,3.8-1.9,5.3c1,0.5,1.8,1.2,2.4,2c0.7,0.8,1.1,1.8,1.3,2.9H38l-4.4,4.8
		H38.8z"/>
	<path class="st1" d="M5.4,32h5.2l-5.2,8.3l10.5-10.9h-5.2l4.4-4.8h-4.3L5.4,32z"/>
	<path class="st1" d="M22.2,24.6L16.9,32h5.2l-5.2,8.3l10.5-10.9h-5.2l4.4-4.8h-1H22.2z"/>
	<path class="st1" d="M37,24.6h-3.3L28.4,32h5.2l-5.2,8.3l10.5-10.9h-5.2l4.4-4.8H37z"/>
	<path class="st2" d="M5.7,24.1c0-5.5,3.7-9.9,8.5-10.1h0.3l0.1-0.3c0.7-1.6,1.9-3,3.4-4c1.5-1,3.2-1.5,5-1.6c1.7,0,3.4,0.5,4.8,1.5
		l0.4,0.3l0.3-0.4c0.5-0.7,1.2-1.3,2-1.7c0.8-0.4,1.7-0.6,2.6-0.6c3.4,0,6.3,3.2,6.3,7.2c0,1.8-0.6,3.6-1.8,5L37.2,20l0.6,0.3
		c0.8,0.4,1.5,0.9,2.1,1.6c0.6,0.7,1,1.4,1.2,2.3L5.7,24.1z"/>
	<path class="st3" d="M33.1,7.7c3.1,0,5.7,3,5.7,6.7c0,1.7-0.6,3.4-1.6,4.7l-0.9,1l1.3,0.6c1.2,0.6,2.2,1.6,2.8,2.9h-34
		c0.2-5,3.6-8.9,8-9.1h0.6l0.3-0.5c0.7-1.5,1.8-2.8,3.2-3.7c1.4-0.9,3-1.4,4.7-1.5c1.6,0,3.2,0.5,4.6,1.4l0.8,0.5l0.6-0.8
		c0.5-0.7,1.1-1.2,1.8-1.6C31.5,8,32.3,7.8,33.1,7.7L33.1,7.7z M33.1,6.7c-1,0-1.9,0.3-2.8,0.7s-1.6,1.1-2.2,1.9
		c-1.5-1-3.3-1.6-5.1-1.6c-1.9,0.1-3.7,0.6-5.2,1.6c-1.6,1-2.8,2.5-3.6,4.2c-5,0.2-9,4.9-9,10.6c0,0.2,0,0.4,0,0.6h36.6
		c-0.2-1-0.7-2-1.3-2.9s-1.5-1.5-2.4-2c1.2-1.5,1.9-3.4,1.9-5.3C39.9,10.2,36.9,6.7,33.1,6.7L33.1,6.7z"/>
</g>
</svg>
