<?xml version="1.0" encoding="utf-8"?>
<!-- Generator: Adobe Illustrator 23.0.0, SVG Export Plug-In . SVG Version: 6.00 Build 0)  -->
<svg version="1.1" id="Livello_1" xmlns="http://www.w3.org/2000/svg" xmlns:xlink="http://www.w3.org/1999/xlink" x="0px" y="0px"
	 viewBox="0 0 47 47" style="enable-background:new 0 0 47 47;" xml:space="preserve">
<style type="text/css">
	.st0{fill:#006AE8;stroke:#FFFFFF;stroke-miterlimit:10;}
	.st1{fill:#FFD700;stroke:#FFFFFF;stroke-miterlimit:10;}
</style>
<g>
	<path class="st0" d="M37.1,0H9.9c-2.6,0-5.2,1-7,2.9C1,4.8,0,7.3,0,9.9v27.2c0,2.6,1,5.2,2.9,7C4.8,46,7.3,47,9.9,47h27.2
		c2.6,0,5.2-1,7-2.9s2.9-4.4,2.9-7V9.9c0-2.6-1-5.2-2.9-7C42.2,1,39.7,0,37.1,0z M34.4,7.3l1.1-2.5l1.3,2.4l2.7,0.3l-1.9,2l0.5,2.6
		L35.7,11l-2.3,1.3l0.4-2.7l-2-1.9L34.4,7.3z M25.8,44.8c-3,0-6-0.6-8.8-1.9c-2.8-1.2-5.2-3.1-7.2-5.3c-2-2.3-3.5-4.9-4.4-7.8
		s-1.2-6-0.8-9s1.4-5.9,3-8.5c1.6-2.6,3.7-4.8,6.2-6.5c2.5-1.7,5.4-2.8,8.3-3.3s6.1-0.4,9,0.4c-4.6,1.2-8.6,3.8-11.5,7.6
		c-2.9,3.7-4.5,8.3-4.5,13s1.6,9.3,4.5,13c2.9,3.7,6.9,6.4,11.5,7.6C29.4,44.6,27.6,44.8,25.8,44.8z M36.3,38.7l-1.4,3.1l-1.6-3
		l-3.4-0.4l2.4-2.5l-0.7-3.3l3.1,1.5l3-1.7l-0.5,3.4l2.5,2.4L36.3,38.7z M38.2,25.3l-2.8,3.3l-0.9-4.2l-4-1.6l3.7-2.2l0.3-4.3
		l3.2,2.9l4.2-1l-1.7,4l2.3,3.7L38.2,25.3z"/>
	<path class="st1" d="M33.3,12.3l2.3-1.3l2.4,1.2l-0.5-2.7l1.9-2l-2.7-0.3l-1.3-2.4l-1.1,2.5l-2.7,0.5l2,1.8L33.3,12.3z"/>
	<path class="st1" d="M42,18l-4.2,1l-3.2-2.9l-0.3,4.3l-3.7,2.2l4,1.6l0.9,4.2l2.8-3.3l4.3,0.4L40.2,22L42,18z"/>
	<path class="st1" d="M37.5,32.4l-3,1.7l-3.1-1.5l0.7,3.3l-2.4,2.5l3.4,0.4l1.6,3l1.4-3.1l3.4-0.6l-2.5-2.3L37.5,32.4z"/>
	<path class="st1" d="M15.1,23.5c0-4.7,1.6-9.3,4.5-13c2.9-3.7,6.9-6.4,11.5-7.6c-3.2-0.8-6.5-0.9-9.6-0.3c-3.2,0.6-6.2,2-8.8,4
		c-2.6,2-4.7,4.5-6.1,7.5c-1.4,2.9-2.2,6.1-2.2,9.4s0.7,6.5,2.2,9.4c1.4,2.9,3.5,5.5,6.1,7.5c2.6,2,5.6,3.4,8.8,4
		c3.2,0.6,6.5,0.6,9.6-0.3c-4.6-1.2-8.6-3.9-11.5-7.6C16.7,32.8,15.1,28.2,15.1,23.5z"/>
</g>
</svg>
