<svg xmlns="http://www.w3.org/2000/svg" viewBox="0 0 46 46"><defs><style>.cls-1{fill:#1f0cf5;}.cls-1,.cls-2{stroke:#fff;stroke-miterlimit:10;}.cls-2{fill:#ffe15d;}.cls-3{fill:#fff;}</style></defs><title>Risorsa 9Copertonotte</title><g id="Livello_2" data-name="Livello 2"><g id="Livello_2-2" data-name="Livello 2"><rect class="cls-1" x="0.5" y="0.5" width="45" height="45" rx="8.17"/><polygon class="cls-2" points="32.42 12.24 34.67 10.96 37.01 12.09 36.49 9.54 38.29 7.67 35.71 7.38 34.48 5.09 33.41 7.46 30.85 7.92 32.77 9.67 32.42 12.24"/><polygon class="cls-2" points="40.7 17.76 36.66 18.76 33.55 16 33.25 20.14 29.66 22.25 33.51 23.82 34.41 27.88 37.09 24.7 41.23 25.11 39.03 21.58 40.7 17.76"/><polygon class="cls-2" points="36.45 31.51 33.62 33.14 30.67 31.73 31.34 34.92 29.09 37.29 32.34 37.64 33.89 40.52 35.23 37.53 38.44 36.95 36.02 34.75 36.45 31.51"/><path class="cls-2" d="M15,23A20.4,20.4,0,0,1,30.27,3.27a20.4,20.4,0,1,0,0,39.46A20.4,20.4,0,0,1,15,23Z"/><path class="cls-3" d="M9.2,45.5A8.61,8.61,0,0,1,.5,37v-.44a13.06,13.06,0,0,1,10-5.56h.29l.14-.26a14.65,14.65,0,0,1,12.83-8.31,13.62,13.62,0,0,1,7.47,2.27l.38.25.28-.35A9.3,9.3,0,0,1,39.07,21a9.08,9.08,0,0,1,6.43,2.76V37a8.61,8.61,0,0,1-8.7,8.5Z"/><path class="cls-3" d="M39.07,21.49A8.6,8.6,0,0,1,45,24V37a8.11,8.11,0,0,1-8.2,8H9.2A8.11,8.11,0,0,1,1,37v-.28a12.53,12.53,0,0,1,9.51-5.22l.58,0,.27-.52a14.17,14.17,0,0,1,12.39-8A13.12,13.12,0,0,1,31,25.11l.75.5.57-.71a8.82,8.82,0,0,1,6.8-3.41m0-1a9.77,9.77,0,0,0-7.58,3.78,14.05,14.05,0,0,0-7.74-2.35c-5.68,0-10.63,3.45-13.28,8.58A13.59,13.59,0,0,0,0,36.4V37a9.1,9.1,0,0,0,9.2,9H36.8A9.1,9.1,0,0,0,46,37V23.54a9.63,9.63,0,0,0-6.93-3.05Z"/></g></g></svg>