<?xml version="1.0" encoding="utf-8"?>
<!-- Generator: Adobe Illustrator 23.0.0, SVG Export Plug-In . SVG Version: 6.00 Build 0)  -->
<svg version="1.1" id="Livello_1" xmlns="http://www.w3.org/2000/svg" xmlns:xlink="http://www.w3.org/1999/xlink" x="0px" y="0px"
	 viewBox="0 0 46 47" style="enable-background:new 0 0 46 47;" xml:space="preserve">
<style type="text/css">
	.st0{fill:#006AE8;stroke:#FFFFFF;stroke-miterlimit:10;}
	.st1{fill:#FFD700;stroke:#FFFFFF;stroke-miterlimit:10;}
	.st2{fill:#919191;stroke:#FFFFFF;stroke-miterlimit:10;}
	.st3{fill:#FFFFFF;}
</style>
<g>
	<path class="st0" d="M37.3,0H8.7C4.2,0,0.5,3.8,0.5,8.4V38c0,4.7,3.7,8.4,8.2,8.4h28.7c4.5,0,8.2-3.8,8.2-8.4V8.4
		C45.5,3.8,41.8,0,37.3,0z"/>
	<path class="st1" d="M32.4,12.1l2.3-1.3L37,12l-0.5-2.6l1.8-1.9l-2.6-0.3l-1.2-2.4l-1.1,2.4l-2.6,0.5l1.9,1.8L32.4,12.1z"/>
	<path class="st1" d="M40.7,17.8l-4,1L33.5,16l-0.3,4.3l-3.6,2.2l3.8,1.6l0.9,4.2l2.7-3.3l4.1,0.4L39,21.8L40.7,17.8z"/>
	<path class="st2" d="M36.5,32l-2.8,1.7l-2.9-1.5l0.7,3.3L29.1,38l3.3,0.4l1.5,3l1.3-3.1l3.2-0.6L36,35.4L36.5,32z"/>
	<path class="st1" d="M15,23.2c0-4.7,1.5-9.2,4.3-12.9c2.8-3.7,6.6-6.3,11-7.5c-3-0.8-6.2-0.9-9.2-0.3c-3.1,0.6-5.9,2-8.4,4
		c-2.5,2-4.5,4.5-5.8,7.4c-1.4,2.9-2.1,6.1-2.1,9.3s0.7,6.4,2.1,9.3c1.4,2.9,3.4,5.4,5.8,7.4c2.5,2,5.3,3.3,8.4,4
		c3.1,0.6,6.2,0.5,9.2-0.3c-4.4-1.2-8.2-3.8-11-7.5S15,27.9,15,23.2z"/>
	<path class="st3" d="M9.2,46.5c-2.3,0-4.5-0.9-6.1-2.5c-1.6-1.6-2.6-3.9-2.6-6.2v-0.5c1.1-1.7,2.6-3.1,4.4-4.1
		c1.7-1,3.7-1.6,5.6-1.7h0.3l0.1-0.3c1.2-2.5,3-4.6,5.2-6.2c2.3-1.5,4.9-2.4,7.6-2.4c2.7,0,5.3,0.8,7.5,2.3l0.4,0.3l0.3-0.4
		c0.9-1.1,1.9-2.1,3.2-2.7c1.2-0.6,2.6-1,4-1c1.2,0,2.4,0.3,3.5,0.8c1.1,0.5,2.1,1.2,2.9,2.1v13.7c0,2.4-1,4.6-2.6,6.2
		c-1.6,1.6-3.8,2.6-6.1,2.5H9.2z"/>
	<path class="st3" d="M39.1,21.7c2.2,0,4.4,1,5.9,2.6v13.4c0,2.2-0.9,4.3-2.4,5.9C41,45.1,38.9,46,36.8,46H9.2
		c-2.1,0-4.2-0.8-5.8-2.4C1.9,42,1,39.9,1,37.7v-0.3c1.1-1.6,2.5-2.9,4.2-3.8c1.6-0.9,3.5-1.5,5.3-1.6h0.6l0.3-0.5
		c1.1-2.4,2.9-4.5,5.1-5.9c2.2-1.5,4.7-2.3,7.3-2.3c2.6,0,5.1,0.7,7.3,2.2l0.8,0.5l0.6-0.7c0.8-1.1,1.8-1.9,3-2.6
		C36.5,22,37.8,21.7,39.1,21.7L39.1,21.7z M39.1,20.6c-1.5,0-2.9,0.4-4.2,1.1c-1.3,0.7-2.5,1.6-3.4,2.8c-2.3-1.6-5-2.4-7.7-2.4
		c-5.7,0-10.6,3.6-13.3,8.9c-2.1,0.1-4.1,0.7-6,1.8c-1.8,1.1-3.4,2.5-4.6,4.3v0.6c0,1.2,0.3,2.5,0.7,3.6c0.5,1.1,1.2,2.2,2,3
		c0.9,0.9,1.9,1.5,3,2C6.8,46.8,8,47,9.2,47h27.6c1.2,0,2.4-0.2,3.5-0.7c1.1-0.5,2.1-1.1,3-2c0.9-0.9,1.5-1.9,2-3
		c0.5-1.1,0.7-2.4,0.7-3.6V23.8c-0.9-1-2-1.8-3.2-2.3C41.7,20.9,40.4,20.7,39.1,20.6L39.1,20.6z"/>
</g>
</svg>
