<svg xmlns="http://www.w3.org/2000/svg" viewBox="0 0 46 46"><defs><style>.cls-1{fill:#006ae8;stroke:#fff;stroke-miterlimit:10;}.cls-2{fill:#6b6868;}.cls-3{fill:#fff;}</style></defs><title>Risorsa 5Nuvolosopesante</title><g id="Livello_2" data-name="Livello 2"><g id="Livello_2-2" data-name="Livello 2"><path class="cls-1" d="M36.5.5H9.5a9,9,0,0,0-9,9v27a9,9,0,0,0,9,9h27a9,9,0,0,0,9-9V9.5A9,9,0,0,0,36.5.5Zm-31,31.09c0-.18,0-.35,0-.53,0-5.5,3.82-10,8.58-10.17a9.57,9.57,0,0,1,8.42-5.55,8.74,8.74,0,0,1,4.91,1.52,6.15,6.15,0,0,1,4.81-2.45c3.57,0,6.47,3.31,6.47,7.4a8,8,0,0,1-1.8,5.12,6.7,6.7,0,0,1,3.61,4.66Z"/><path class="cls-2" d="M6,31.09v0c0-5.23,3.56-9.48,8.11-9.67h.29l.13-.26a9.11,9.11,0,0,1,8-5.29,8.35,8.35,0,0,1,4.64,1.44l.38.26.29-.36a5.64,5.64,0,0,1,4.41-2.26c3.29,0,6,3.1,6,6.9a7.45,7.45,0,0,1-1.69,4.8l-.42.5.6.27a6.12,6.12,0,0,1,3.16,3.71Z"/><path class="cls-3" d="M32.22,15.41c3,0,5.47,2.87,5.47,6.4a6.93,6.93,0,0,1-1.57,4.48l-.85,1,1.2.54a5.45,5.45,0,0,1,2.64,2.75H6.51c.2-4.75,3.48-8.53,7.62-8.7l.58,0,.27-.52a8.6,8.6,0,0,1,7.52-5,7.78,7.78,0,0,1,4.36,1.35l.76.52.58-.73a5.08,5.08,0,0,1,4-2.07m0-1a6.15,6.15,0,0,0-4.81,2.45,8.74,8.74,0,0,0-4.91-1.52,9.57,9.57,0,0,0-8.42,5.55c-4.76.2-8.58,4.67-8.58,10.17,0,.18,0,.35,0,.53h35a6.7,6.7,0,0,0-3.61-4.66,8,8,0,0,0,1.8-5.12c0-4.09-2.9-7.4-6.47-7.4Z"/></g></g></svg>