<svg xmlns="http://www.w3.org/2000/svg" viewBox="0 0 45.5 45.5"><defs><style>.cls-1{fill:#1f0cf5;}.cls-1,.cls-2{stroke:#fff;stroke-miterlimit:10;stroke-width:0.5px;}.cls-2{fill:#ffe15d;}.cls-3{fill:#6b6868;}.cls-4{fill:#fff;}</style></defs><title>Risorsa 11Temporale</title><g id="Livello_2" data-name="Livello 2"><g id="Livello_2-2" data-name="Livello 2"><path class="cls-1" d="M36.25.25h-27a9,9,0,0,0-9,9v27a9,9,0,0,0,9,9h27a9,9,0,0,0,9-9v-27A9,9,0,0,0,36.25.25Zm1.19,28.19-10,10.4,5-7.93h-5l5.13-7.07H25.67l-4.25,4.6h5l-10,10.4,5-7.93h-5l5.13-7.07H14.67l-4.25,4.6h5l-10,10.4,5-7.93h-5l5.13-7.07H5.28c0-.18,0-.35,0-.53,0-5.5,3.82-10,8.58-10.17a9.57,9.57,0,0,1,8.42-5.55,8.74,8.74,0,0,1,4.91,1.52A6.15,6.15,0,0,1,32,6.66c3.57,0,6.47,3.31,6.47,7.4a8,8,0,0,1-1.8,5.12,6.7,6.7,0,0,1,3.61,4.66H36.67l-4.25,4.6Z"/><polygon class="cls-2" points="5.42 30.91 10.42 30.91 5.4 38.84 15.44 28.44 10.42 28.44 14.67 23.84 10.55 23.84 5.42 30.91"/><polygon class="cls-2" points="21.55 23.84 16.42 30.91 21.42 30.91 16.4 38.84 26.44 28.44 21.42 28.44 25.67 23.84 24.67 23.84 21.55 23.84"/><polygon class="cls-2" points="35.67 23.84 32.55 23.84 27.42 30.91 32.42 30.91 27.4 38.84 37.44 28.44 32.42 28.44 36.67 23.84 35.67 23.84"/><path class="cls-3" d="M5.51,23.59a2.53,2.53,0,0,1,0-.28c0-5.37,3.67-9.73,8.34-9.92H14l.07-.13a9.35,9.35,0,0,1,8.19-5.43A8.53,8.53,0,0,1,27,9.32l.2.13.14-.19A5.92,5.92,0,0,1,32,6.91c3.43,0,6.22,3.21,6.22,7.15a7.72,7.72,0,0,1-1.74,5l-.22.25.3.14a6.4,6.4,0,0,1,3.4,4.18Z"/><path class="cls-4" d="M32,7.16c3.29,0,6,3.1,6,6.9a7.45,7.45,0,0,1-1.69,4.8l-.42.5.6.28a6.08,6.08,0,0,1,3.16,3.7H5.75v0c0-5.24,3.56-9.48,8.11-9.67h.29l.13-.26a9.1,9.1,0,0,1,8-5.28,8.34,8.34,0,0,1,4.64,1.43l.38.26.29-.36A5.64,5.64,0,0,1,32,7.16m0-.5a6.15,6.15,0,0,0-4.81,2.45,8.74,8.74,0,0,0-4.91-1.52,9.57,9.57,0,0,0-8.42,5.55c-4.76.2-8.58,4.67-8.58,10.17,0,.18,0,.35,0,.53h35a6.7,6.7,0,0,0-3.61-4.66,8,8,0,0,0,1.8-5.12c0-4.09-2.9-7.4-6.47-7.4Z"/></g></g></svg>