<svg xmlns="http://www.w3.org/2000/svg" xmlns:xlink="http://www.w3.org/1999/xlink" viewBox="0 0 46 46"><defs><style>.cls-1{fill:#1f0cf5;}.cls-1,.cls-10,.cls-11,.cls-12,.cls-13,.cls-2,.cls-5,.cls-6,.cls-7,.cls-8,.cls-9{stroke:#fff;stroke-miterlimit:10;}.cls-2{fill:#ffe15d;}.cls-3{fill:#6b6868;}.cls-4{fill:#fff;}.cls-10,.cls-11,.cls-12,.cls-13,.cls-5,.cls-6,.cls-7,.cls-8,.cls-9{stroke-width:0.25px;}.cls-5{fill:url(#Sfumatura_senza_nome_5);}.cls-6{fill:url(#Sfumatura_senza_nome_5-2);}.cls-7{fill:url(#Sfumatura_senza_nome_5-3);}.cls-8{fill:url(#Sfumatura_senza_nome_5-4);}.cls-9{fill:url(#Sfumatura_senza_nome_5-5);}.cls-10{fill:url(#Sfumatura_senza_nome_5-6);}.cls-11{fill:url(#Sfumatura_senza_nome_5-7);}.cls-12{fill:url(#Sfumatura_senza_nome_5-8);}.cls-13{fill:url(#Sfumatura_senza_nome_5-9);}</style><linearGradient id="Sfumatura_senza_nome_5" x1="11.91" y1="38.62" x2="14.3" y2="38.62" gradientUnits="userSpaceOnUse"><stop offset="0.19" stop-color="#cce0f4"/><stop offset="0.23" stop-color="#c3dcf2"/><stop offset="0.3" stop-color="#a9d2ee"/><stop offset="0.39" stop-color="#80c2e7"/><stop offset="0.5" stop-color="#47acde"/><stop offset="0.57" stop-color="#1e9cd7"/><stop offset="0.87" stop-color="#0075be"/><stop offset="0.99" stop-color="#005b97"/></linearGradient><linearGradient id="Sfumatura_senza_nome_5-2" x1="17.34" y1="38.62" x2="19.73" y2="38.62" xlink:href="#Sfumatura_senza_nome_5"/><linearGradient id="Sfumatura_senza_nome_5-3" x1="22.78" y1="38.62" x2="25.17" y2="38.62" xlink:href="#Sfumatura_senza_nome_5"/><linearGradient id="Sfumatura_senza_nome_5-4" x1="28.22" y1="38.62" x2="30.61" y2="38.62" xlink:href="#Sfumatura_senza_nome_5"/><linearGradient id="Sfumatura_senza_nome_5-5" x1="9.16" y1="34.25" x2="11.55" y2="34.25" xlink:href="#Sfumatura_senza_nome_5"/><linearGradient id="Sfumatura_senza_nome_5-6" x1="14.6" y1="34.25" x2="16.99" y2="34.25" xlink:href="#Sfumatura_senza_nome_5"/><linearGradient id="Sfumatura_senza_nome_5-7" x1="20.04" y1="34.25" x2="22.43" y2="34.25" xlink:href="#Sfumatura_senza_nome_5"/><linearGradient id="Sfumatura_senza_nome_5-8" x1="25.47" y1="34.25" x2="27.86" y2="34.25" xlink:href="#Sfumatura_senza_nome_5"/><linearGradient id="Sfumatura_senza_nome_5-9" x1="30.91" y1="34.25" x2="33.3" y2="34.25" xlink:href="#Sfumatura_senza_nome_5"/></defs><title>Risorsa 13Pioggianotte</title><g id="Livello_2" data-name="Livello 2"><g id="Livello_2-2" data-name="Livello 2"><path class="cls-1" d="M36,.5H10A9.5,9.5,0,0,0,.5,10V36A9.5,9.5,0,0,0,10,45.5H36A9.5,9.5,0,0,0,45.5,36V10A9.5,9.5,0,0,0,36,.5Zm-2.59,7,1.07-2.37,1.23,2.29,2.58.29-1.8,1.87L37,12.09,34.67,11l-2.25,1.28.35-2.57L30.85,7.92ZM25.17,43.4a20.4,20.4,0,1,1,5.1-40.13,20.37,20.37,0,0,0,0,39.46A20.37,20.37,0,0,1,25.17,43.4Zm10.06-5.87-1.34,3-1.55-2.88-3.25-.35,2.25-2.37-.67-3.19,2.95,1.41,2.83-1.63L36,34.75,38.44,37ZM37.09,24.7l-2.68,3.18-.9-4.06-3.85-1.57,3.59-2.1.3-4.15,3.11,2.76,4-1L39,21.58l2.2,3.53Z"/><polygon class="cls-2" points="32.42 12.24 34.67 10.96 37.01 12.09 36.49 9.54 38.29 7.67 35.71 7.38 34.48 5.09 33.41 7.46 30.85 7.92 32.77 9.67 32.42 12.24"/><polygon class="cls-2" points="40.7 17.76 36.66 18.76 33.55 16 33.25 20.14 29.66 22.25 33.51 23.82 34.41 27.88 37.09 24.7 41.23 25.11 39.03 21.58 40.7 17.76"/><polygon class="cls-2" points="36.45 31.51 33.62 33.14 30.67 31.73 31.34 34.92 29.09 37.29 32.34 37.64 33.89 40.52 35.23 37.53 38.44 36.95 36.02 34.75 36.45 31.51"/><path class="cls-2" d="M15,23A20.4,20.4,0,0,1,30.27,3.27a20.4,20.4,0,1,0,0,39.46A20.4,20.4,0,0,1,15,23Z"/><path class="cls-3" d="M3,30.5v-.09C3,25.6,5.77,21.31,9.8,20a8.32,8.32,0,0,1,2.26-.42h.3l.13-.26a10.39,10.39,0,0,1,7.83-5.86A8.92,8.92,0,0,1,26.64,15l.39.26.28-.37a6.57,6.57,0,0,1,4.1-2.47,5.75,5.75,0,0,1,.88-.07,6,6,0,0,1,2,.35A7.69,7.69,0,0,1,39,20.08a8.42,8.42,0,0,1-1.9,5.4l-.43.5.6.27a6.94,6.94,0,0,1,3.59,4.25Z"/><path class="cls-4" d="M32.29,12.82a5.47,5.47,0,0,1,1.83.32,7.2,7.2,0,0,1,4.4,6.94,7.86,7.86,0,0,1-1.79,5.07l-.84,1,1.2.55A6.27,6.27,0,0,1,40.16,30H3.46c.16-4.43,2.78-8.32,6.49-9.54a7.83,7.83,0,0,1,2.13-.4l.59,0,.26-.53a9.93,9.93,0,0,1,7.46-5.59,10.26,10.26,0,0,1,1.05-.07,8.82,8.82,0,0,1,4.92,1.53l.77.52.58-.73a6,6,0,0,1,3.78-2.28,4.81,4.81,0,0,1,.8-.07m0-1a5.89,5.89,0,0,0-.95.08,7,7,0,0,0-4.42,2.65,9.78,9.78,0,0,0-5.48-1.7,9.23,9.23,0,0,0-1.18.08A10.89,10.89,0,0,0,12,19.06a8.79,8.79,0,0,0-2.4.45c-4.15,1.37-7.18,5.72-7.18,10.9,0,.2,0,.39,0,.59h39a7.5,7.5,0,0,0-4-5.2,8.89,8.89,0,0,0,2-5.72,8.21,8.21,0,0,0-5.06-7.88,6.35,6.35,0,0,0-2.17-.38Z"/><path class="cls-5" d="M13,35.36l-.77,3.48s-1.07,3.32,1,3,.7-3.17.7-3.17Z"/><path class="cls-6" d="M18.4,35.36l-.78,3.48s-1.07,3.32,1,3,.7-3.17.7-3.17Z"/><path class="cls-7" d="M23.84,35.36l-.78,3.48s-1.07,3.32,1,3,.7-3.17.7-3.17Z"/><path class="cls-8" d="M29.28,35.36l-.78,3.48s-1.07,3.32,1,3,.71-3.17.71-3.17Z"/><path class="cls-9" d="M10.23,31h0l-.77,3.45s-1.07,3.31,1,3,.7-3.16.7-3.16Z"/><path class="cls-10" d="M15.67,31h0l-.77,3.45s-1.07,3.31,1,3,.71-3.16.71-3.16Z"/><path class="cls-11" d="M21.11,31h0l-.77,3.45s-1.07,3.31,1,3,.7-3.16.7-3.16Z"/><path class="cls-12" d="M26.54,31h0l-.77,3.45s-1.07,3.31,1,3,.7-3.16.7-3.16Z"/><path class="cls-13" d="M32,31h0l-.77,3.45s-1.07,3.31,1,3,.7-3.16.7-3.16Z"/></g></g></svg>