<svg width="128" height="194" viewBox="0 0 128 194" fill="none" xmlns="http://www.w3.org/2000/svg">
<rect width="128" height="194" fill="#A38A00"/>
<path d="M54.8047 14.4922C54.8047 15.2018 54.6159 15.8333 54.2383 16.3867C53.8672 16.9401 53.3626 17.373 52.7246 17.6855C53.4668 18.0046 54.0527 18.4701 54.4824 19.082C54.9186 19.694 55.1367 20.3874 55.1367 21.1621C55.1367 22.3926 54.7201 23.3724 53.8867 24.1016C53.0599 24.8307 51.9694 25.1953 50.6152 25.1953C49.248 25.1953 48.151 24.8307 47.3242 24.1016C46.5039 23.3659 46.0938 22.3861 46.0938 21.1621C46.0938 20.3939 46.3021 19.7005 46.7188 19.082C47.1419 18.4635 47.7246 17.9948 48.4668 17.6758C47.8353 17.3633 47.3372 16.9303 46.9727 16.377C46.6081 15.8236 46.4258 15.1953 46.4258 14.4922C46.4258 13.2943 46.8099 12.3438 47.5781 11.6406C48.3464 10.9375 49.3587 10.5859 50.6152 10.5859C51.8652 10.5859 52.8743 10.9375 53.6426 11.6406C54.4173 12.3438 54.8047 13.2943 54.8047 14.4922ZM53.3301 21.123C53.3301 20.3288 53.0762 19.681 52.5684 19.1797C52.0671 18.6784 51.4095 18.4277 50.5957 18.4277C49.7819 18.4277 49.1276 18.6751 48.6328 19.1699C48.1445 19.6647 47.9004 20.3158 47.9004 21.123C47.9004 21.9303 48.138 22.5651 48.6133 23.0273C49.0951 23.4896 49.7624 23.7207 50.6152 23.7207C51.4616 23.7207 52.1257 23.4896 52.6074 23.0273C53.0892 22.5586 53.3301 21.9238 53.3301 21.123ZM50.6152 12.0703C49.9056 12.0703 49.3294 12.2917 48.8867 12.7344C48.4505 13.1706 48.2324 13.7663 48.2324 14.5215C48.2324 15.2441 48.4473 15.8301 48.877 16.2793C49.3132 16.722 49.8926 16.9434 50.6152 16.9434C51.3379 16.9434 51.9141 16.722 52.3438 16.2793C52.7799 15.8301 52.998 15.2441 52.998 14.5215C52.998 13.7988 52.7734 13.2096 52.3242 12.7539C51.875 12.2982 51.3053 12.0703 50.6152 12.0703ZM57.5 13.125C57.5 12.4479 57.7409 11.8555 58.2227 11.3477C58.7109 10.8398 59.3001 10.5859 59.9902 10.5859C60.6673 10.5859 61.2435 10.8398 61.7188 11.3477C62.2005 11.849 62.4414 12.4414 62.4414 13.125C62.4414 13.8151 62.2005 14.4043 61.7188 14.8926C61.2435 15.3809 60.6673 15.625 59.9902 15.625C59.3066 15.625 58.7207 15.3809 58.2324 14.8926C57.7441 14.4043 57.5 13.8151 57.5 13.125ZM59.9902 14.375C60.3418 14.375 60.638 14.2611 60.8789 14.0332C61.1198 13.7988 61.2402 13.4961 61.2402 13.125C61.2402 12.7474 61.1198 12.4382 60.8789 12.1973C60.638 11.9499 60.3418 11.8262 59.9902 11.8262C59.6322 11.8262 59.3294 11.9564 59.082 12.2168C58.8411 12.4707 58.7207 12.7734 58.7207 13.125C58.7207 13.4766 58.8411 13.7728 59.082 14.0137C59.3294 14.2546 59.6322 14.375 59.9902 14.375ZM80.7812 20.4883C80.6055 21.9922 80.0488 23.1543 79.1113 23.9746C78.1803 24.7884 76.9401 25.1953 75.3906 25.1953C73.7109 25.1953 72.3633 24.5931 71.3477 23.3887C70.3385 22.1842 69.834 20.5729 69.834 18.5547V17.1875C69.834 15.8659 70.0684 14.7038 70.5371 13.7012C71.0124 12.6986 71.6829 11.9303 72.5488 11.3965C73.4147 10.8561 74.4173 10.5859 75.5566 10.5859C77.0671 10.5859 78.278 11.0091 79.1895 11.8555C80.1009 12.6953 80.6315 13.8607 80.7812 15.3516H78.8965C78.7337 14.2188 78.3789 13.3984 77.832 12.8906C77.2917 12.3828 76.5332 12.1289 75.5566 12.1289C74.3587 12.1289 73.418 12.5716 72.7344 13.457C72.0573 14.3424 71.7188 15.6022 71.7188 17.2363V18.6133C71.7188 20.1562 72.041 21.3835 72.6855 22.2949C73.3301 23.2064 74.2318 23.6621 75.3906 23.6621C76.4323 23.6621 77.2298 23.4277 77.7832 22.959C78.3431 22.4837 78.7142 21.6602 78.8965 20.4883H80.7812Z" fill="white"/>
<path d="M98 40H29C22.9 40 17.0499 42.4232 12.7365 46.7365C8.42321 51.0499 6 56.9 6 63V132C6 138.1 8.42321 143.95 12.7365 148.263C17.0499 152.577 22.9 155 29 155H98C104.1 155 109.95 152.577 114.263 148.263C118.577 143.95 121 138.1 121 132V63C121 56.9 118.577 51.0499 114.263 46.7365C109.95 42.4232 104.1 40 98 40ZM76.9678 152.93C68.5209 144.497 58.148 138.248 46.7453 134.722C35.3425 131.195 23.2526 130.498 11.52 132.69C16.9049 122.059 19.6297 110.28 19.4605 98.3643C19.2914 86.4485 16.2334 74.7517 10.5489 64.2778C22.3504 66.1101 34.4204 65.0462 45.7193 61.1775C57.0182 57.3088 67.2073 50.7513 75.4089 42.07L76.2778 46.9C77.9048 57.2069 82.011 66.9644 88.2432 75.3333C94.4754 83.7023 102.647 90.4322 112.056 94.9444L116.451 97.04C105.836 102.462 96.6967 110.382 89.8191 120.117C82.9414 129.853 78.5313 141.113 76.9678 152.93Z" fill="#00B1FF" stroke="white" stroke-miterlimit="10"/>
<path d="M76.2777 46.9001L75.5111 42.0701C67.299 50.767 57.093 57.3337 45.7747 61.2029C34.4564 65.0721 22.3663 66.1275 10.5488 64.2778C16.2506 74.7645 19.3181 86.4799 19.4873 98.4153C19.6565 110.351 16.9222 122.148 11.5199 132.792C23.2525 130.6 35.3424 131.298 46.7452 134.824C58.148 138.35 68.5208 144.6 76.9677 153.032C78.4998 141.179 82.8955 129.877 89.7747 120.104C96.654 110.33 105.81 102.379 116.451 96.9378L112.055 94.9445C102.647 90.4323 94.4753 83.7023 88.2431 75.3334C82.011 66.9644 77.9048 57.207 76.2777 46.9001ZM57.1877 123.567C52.0084 123.592 46.9383 122.078 42.6207 119.218C38.303 116.357 34.9323 112.278 32.9362 107.499C30.9401 102.72 30.4086 97.4554 31.4091 92.3736C32.4096 87.2918 34.897 82.6217 38.5558 78.9557C42.2146 75.2898 46.8798 72.7932 51.9596 71.7827C57.0394 70.7723 62.3049 71.2934 67.0881 73.2801C71.8713 75.2668 75.9565 78.6295 78.8256 82.9416C81.6948 87.2536 83.2184 92.3207 83.2033 97.5001C83.2033 104.427 80.4516 111.07 75.5536 115.968C70.6555 120.866 64.0124 123.618 57.0855 123.618L57.1877 123.567Z" fill="#FFC430" stroke="white" stroke-miterlimit="10"/>
<path d="M57.0855 123.643C71.524 123.643 83.2288 111.939 83.2288 97.5C83.2288 83.0615 71.524 71.3567 57.0855 71.3567C42.6469 71.3567 30.9421 83.0615 30.9421 97.5C30.9421 111.939 42.6469 123.643 57.0855 123.643Z" fill="#FFD700" stroke="white" stroke-miterlimit="10"/>
<path d="M49.0977 177.936C49.0977 180.051 48.7363 181.624 48.0137 182.652C47.291 183.681 46.1615 184.195 44.625 184.195C43.1081 184.195 41.985 183.694 41.2559 182.691C40.5267 181.682 40.1491 180.178 40.123 178.18V175.768C40.123 173.678 40.4844 172.125 41.207 171.109C41.9297 170.094 43.0625 169.586 44.6055 169.586C46.1354 169.586 47.2617 170.077 47.9844 171.061C48.707 172.037 49.0781 173.548 49.0977 175.592V177.936ZM47.291 175.465C47.291 173.935 47.0762 172.822 46.6465 172.125C46.2168 171.422 45.5365 171.07 44.6055 171.07C43.681 171.07 43.0072 171.419 42.584 172.115C42.1608 172.812 41.9427 173.883 41.9297 175.328V178.219C41.9297 179.755 42.151 180.891 42.5938 181.627C43.043 182.356 43.7201 182.721 44.625 182.721C45.5169 182.721 46.1777 182.376 46.6074 181.686C47.0436 180.995 47.2715 179.908 47.291 178.424V175.465ZM60.0352 173.492C60.0352 174.202 59.8464 174.833 59.4688 175.387C59.0977 175.94 58.5931 176.373 57.9551 176.686C58.6973 177.005 59.2832 177.47 59.7129 178.082C60.1491 178.694 60.3672 179.387 60.3672 180.162C60.3672 181.393 59.9505 182.372 59.1172 183.102C58.2904 183.831 57.1999 184.195 55.8457 184.195C54.4785 184.195 53.3815 183.831 52.5547 183.102C51.7344 182.366 51.3242 181.386 51.3242 180.162C51.3242 179.394 51.5326 178.701 51.9492 178.082C52.3724 177.464 52.9551 176.995 53.6973 176.676C53.0658 176.363 52.5677 175.93 52.2031 175.377C51.8385 174.824 51.6562 174.195 51.6562 173.492C51.6562 172.294 52.0404 171.344 52.8086 170.641C53.5768 169.938 54.5892 169.586 55.8457 169.586C57.0957 169.586 58.1048 169.938 58.873 170.641C59.6478 171.344 60.0352 172.294 60.0352 173.492ZM58.5605 180.123C58.5605 179.329 58.3066 178.681 57.7988 178.18C57.2975 177.678 56.64 177.428 55.8262 177.428C55.0124 177.428 54.3581 177.675 53.8633 178.17C53.375 178.665 53.1309 179.316 53.1309 180.123C53.1309 180.93 53.3685 181.565 53.8438 182.027C54.3255 182.49 54.9928 182.721 55.8457 182.721C56.6921 182.721 57.3561 182.49 57.8379 182.027C58.3197 181.559 58.5605 180.924 58.5605 180.123ZM55.8457 171.07C55.1361 171.07 54.5599 171.292 54.1172 171.734C53.681 172.171 53.4629 172.766 53.4629 173.521C53.4629 174.244 53.6777 174.83 54.1074 175.279C54.5436 175.722 55.123 175.943 55.8457 175.943C56.5684 175.943 57.1445 175.722 57.5742 175.279C58.0104 174.83 58.2285 174.244 58.2285 173.521C58.2285 172.799 58.0039 172.21 57.5547 171.754C57.1055 171.298 56.5358 171.07 55.8457 171.07ZM62.7695 183.053C62.7695 182.74 62.8607 182.48 63.043 182.271C63.2318 182.063 63.5117 181.959 63.8828 181.959C64.2539 181.959 64.5339 182.063 64.7227 182.271C64.918 182.48 65.0156 182.74 65.0156 183.053C65.0156 183.352 64.918 183.603 64.7227 183.805C64.5339 184.007 64.2539 184.107 63.8828 184.107C63.5117 184.107 63.2318 184.007 63.043 183.805C62.8607 183.603 62.7695 183.352 62.7695 183.053ZM62.7793 174.43C62.7793 174.117 62.8704 173.857 63.0527 173.648C63.2415 173.44 63.5215 173.336 63.8926 173.336C64.2637 173.336 64.5436 173.44 64.7324 173.648C64.9277 173.857 65.0254 174.117 65.0254 174.43C65.0254 174.729 64.9277 174.98 64.7324 175.182C64.5436 175.383 64.2637 175.484 63.8926 175.484C63.5215 175.484 63.2415 175.383 63.0527 175.182C62.8704 174.98 62.7793 174.729 62.7793 174.43ZM76.4023 177.936C76.4023 180.051 76.041 181.624 75.3184 182.652C74.5957 183.681 73.4661 184.195 71.9297 184.195C70.4128 184.195 69.2897 183.694 68.5605 182.691C67.8314 181.682 67.4538 180.178 67.4277 178.18V175.768C67.4277 173.678 67.7891 172.125 68.5117 171.109C69.2344 170.094 70.3672 169.586 71.9102 169.586C73.4401 169.586 74.5664 170.077 75.2891 171.061C76.0117 172.037 76.3828 173.548 76.4023 175.592V177.936ZM74.5957 175.465C74.5957 173.935 74.3809 172.822 73.9512 172.125C73.5215 171.422 72.8411 171.07 71.9102 171.07C70.9857 171.07 70.3118 171.419 69.8887 172.115C69.4655 172.812 69.2474 173.883 69.2344 175.328V178.219C69.2344 179.755 69.4557 180.891 69.8984 181.627C70.3477 182.356 71.0247 182.721 71.9297 182.721C72.8216 182.721 73.4824 182.376 73.9121 181.686C74.3483 180.995 74.5762 179.908 74.5957 178.424V175.465ZM87.6328 177.936C87.6328 180.051 87.2715 181.624 86.5488 182.652C85.8262 183.681 84.6966 184.195 83.1602 184.195C81.6432 184.195 80.5202 183.694 79.791 182.691C79.0618 181.682 78.6842 180.178 78.6582 178.18V175.768C78.6582 173.678 79.0195 172.125 79.7422 171.109C80.4648 170.094 81.5977 169.586 83.1406 169.586C84.6706 169.586 85.7969 170.077 86.5195 171.061C87.2422 172.037 87.6133 173.548 87.6328 175.592V177.936ZM85.8262 175.465C85.8262 173.935 85.6113 172.822 85.1816 172.125C84.752 171.422 84.0716 171.07 83.1406 171.07C82.2161 171.07 81.5423 171.419 81.1191 172.115C80.696 172.812 80.4779 173.883 80.4648 175.328V178.219C80.4648 179.755 80.6862 180.891 81.1289 181.627C81.5781 182.356 82.2552 182.721 83.1602 182.721C84.0521 182.721 84.7129 182.376 85.1426 181.686C85.5788 180.995 85.8066 179.908 85.8262 178.424V175.465Z" fill="white"/>
</svg>
