<svg width="128" height="194" viewBox="0 0 128 194" fill="none" xmlns="http://www.w3.org/2000/svg">
<rect width="128" height="194" fill="#A38A00"/>
<path d="M98 40.38H29.0001C17.0032 40.38 7.27783 50.1054 7.27783 62.1022V131.102C7.27783 143.099 17.0032 152.824 29.0001 152.824H98C109.997 152.824 119.722 143.099 119.722 131.102V62.1022C119.722 50.1054 109.997 40.38 98 40.38Z" fill="#00B1FF"/>
<path d="M98 41.5556C103.422 41.5556 108.622 43.7095 112.456 47.5436C116.29 51.3777 118.444 56.5778 118.444 62V131C118.444 136.422 116.29 141.622 112.456 145.456C108.622 149.29 103.422 151.444 98 151.444H29C23.5778 151.444 18.3777 149.29 14.5436 145.456C10.7095 141.622 8.55556 136.422 8.55556 131V62C8.55556 56.5778 10.7095 51.3777 14.5436 47.5436C18.3777 43.7095 23.5778 41.5556 29 41.5556H98ZM98 39H29C22.9 39 17.0499 41.4232 12.7365 45.7365C8.42321 50.0499 6 55.9 6 62L6 131C6 137.1 8.42321 142.95 12.7365 147.263C17.0499 151.577 22.9 154 29 154H98C104.1 154 109.95 151.577 114.263 147.263C118.577 142.95 121 137.1 121 131V62C121 55.9 118.577 50.0499 114.263 45.7365C109.95 41.4232 104.1 39 98 39V39Z" fill="white"/>
<path d="M76.0475 46.5132L75.2808 41.7599C67.1601 50.3349 57.0747 56.805 45.8949 60.6117C34.7152 64.4184 22.7771 65.4474 11.1108 63.6099C16.7501 73.9831 19.7849 85.571 19.954 97.3768C20.1232 109.183 17.4217 120.853 12.082 131.383C23.6937 129.235 35.6534 129.938 46.9333 133.433C58.2133 136.927 68.476 143.108 76.8397 151.444C78.3637 139.73 82.7149 128.563 89.5179 118.906C96.321 109.249 105.372 101.393 115.889 96.0143L111.519 93.9443C102.201 89.5101 94.1029 82.8748 87.923 74.6112C81.7431 66.3476 77.6674 56.7041 76.0475 46.5132ZM57.1108 122.439C51.9969 122.434 46.9992 120.913 42.7495 118.068C38.4999 115.223 35.189 111.182 33.2355 106.456C31.282 101.73 30.7734 96.5305 31.7742 91.5154C32.775 86.5003 35.2402 81.8945 38.8581 78.2802C42.476 74.6658 47.0842 72.2052 52.1003 71.2094C57.1164 70.2136 62.3151 70.7272 67.0393 72.6854C71.7635 74.6436 75.8012 77.9585 78.6418 82.2109C81.4825 86.4634 82.9986 91.4626 82.9986 96.5766C82.9986 99.975 82.3288 103.34 81.0275 106.48C79.7262 109.619 77.819 112.471 75.4147 114.873C73.0105 117.275 70.1564 119.179 67.0157 120.477C63.875 121.776 60.5093 122.442 57.1108 122.439Z" fill="#FFC430" stroke="white" stroke-miterlimit="10"/>
<path d="M57.162 122.439C71.4453 122.439 83.0243 110.86 83.0243 96.5765C83.0243 82.2931 71.4453 70.7142 57.162 70.7142C42.8787 70.7142 31.2998 82.2931 31.2998 96.5765C31.2998 110.86 42.8787 122.439 57.162 122.439Z" fill="#FFD700" stroke="white" stroke-miterlimit="10"/>
<path d="M7.77797 131.002V131V130.005C10.5264 126.01 14.145 122.69 18.3621 120.294C22.6195 117.876 27.3738 116.464 32.2609 116.167H32.9869H33.2959L33.4341 115.89L33.7652 115.228C33.7654 115.228 33.7656 115.227 33.7657 115.227C40.3116 102.288 52.4184 94.2916 65.3647 94.2912C71.9194 94.3177 78.3174 96.2985 83.7404 99.9804L83.7439 99.9827L84.7406 100.647L85.1273 100.905L85.4126 100.538L86.1282 99.6181L86.1283 99.6182L86.1332 99.6116C88.1803 96.8883 90.8192 94.6655 93.8506 93.1108C96.8797 91.5573 100.222 90.7114 103.625 90.6368C106.565 90.6693 109.469 91.2939 112.162 92.4734C114.798 93.6275 117.18 95.2897 119.171 97.3643V130.999C119.165 136.626 116.927 142.02 112.948 145.999C108.969 149.978 103.575 152.216 97.9485 152.222H97.9483L29.0008 152.324C29.0005 152.324 29.0003 152.324 29 152.324C26.2058 152.321 23.4396 151.767 20.8599 150.693C18.28 149.619 15.9373 148.047 13.9659 146.066C11.9946 144.085 10.4333 141.735 9.37143 139.15C8.3096 136.565 7.76811 133.796 7.77797 131.002Z" fill="white" stroke="white"/>
<path d="M103.673 91.4657C109.236 91.5437 114.543 93.8118 118.444 97.7779V131C118.444 136.422 116.29 141.622 112.456 145.457C108.622 149.291 103.422 151.445 98 151.445H29C23.5778 151.445 18.3777 149.291 14.5436 145.457C10.7095 141.622 8.55556 136.422 8.55556 131V130.259C11.2486 126.387 14.7836 123.175 18.8954 120.865C23.0072 118.554 27.5889 117.205 32.2967 116.919H33.7789L34.4689 115.59C40.8578 102.812 52.69 95.1457 65.3656 95.1457C71.7506 95.1776 77.9803 97.1177 83.2544 100.717L85.2222 102.02L86.6789 100.18C88.6617 97.5444 91.2168 95.3929 94.1517 93.8879C97.0866 92.3828 100.325 91.5633 103.622 91.4912L103.673 91.4657ZM103.622 88.9357C99.938 88.9945 96.3161 89.8956 93.0338 91.57C89.7515 93.2443 86.8959 95.6476 84.6856 98.5957C78.9797 94.7395 72.2523 92.675 65.3656 92.6668C51.1822 92.6668 38.8133 101.483 32.1433 114.568C26.9254 114.877 21.8499 116.39 17.3143 118.988C12.7787 121.586 8.90616 125.199 6 129.543L6 131C6 137.1 8.42321 142.95 12.7365 147.264C17.0499 151.577 22.9 154 29 154H98C104.1 154 109.95 151.577 114.263 147.264C118.577 142.95 121 137.1 121 131V96.7046C118.792 94.3068 116.114 92.3889 113.134 91.07C110.153 89.751 106.933 89.0594 103.673 89.0379L103.622 88.9357Z" fill="white"/>
<path d="M47.1191 25H45.3027V12.959L41.6602 14.2969V12.6562L46.8359 10.7129H47.1191V25ZM61.7285 25H52.4121V23.7012L57.334 18.2324C58.0632 17.4056 58.5645 16.735 58.8379 16.2207C59.1178 15.6999 59.2578 15.1628 59.2578 14.6094C59.2578 13.8672 59.0332 13.2585 58.584 12.7832C58.1348 12.3079 57.5358 12.0703 56.7871 12.0703C55.8887 12.0703 55.1888 12.3275 54.6875 12.8418C54.1927 13.3496 53.9453 14.0592 53.9453 14.9707H52.1387C52.1387 13.6621 52.5586 12.6042 53.3984 11.7969C54.2448 10.9896 55.3743 10.5859 56.7871 10.5859C58.1087 10.5859 59.1536 10.9342 59.9219 11.6309C60.6901 12.321 61.0742 13.2422 61.0742 14.3945C61.0742 15.7943 60.1823 17.4609 58.3984 19.3945L54.5898 23.5254H61.7285V25ZM63.7305 13.125C63.7305 12.4479 63.9714 11.8555 64.4531 11.3477C64.9414 10.8398 65.5306 10.5859 66.2207 10.5859C66.8978 10.5859 67.474 10.8398 67.9492 11.3477C68.431 11.849 68.6719 12.4414 68.6719 13.125C68.6719 13.8151 68.431 14.4043 67.9492 14.8926C67.474 15.3809 66.8978 15.625 66.2207 15.625C65.5371 15.625 64.9512 15.3809 64.4629 14.8926C63.9746 14.4043 63.7305 13.8151 63.7305 13.125ZM66.2207 14.375C66.5723 14.375 66.8685 14.2611 67.1094 14.0332C67.3503 13.7988 67.4707 13.4961 67.4707 13.125C67.4707 12.7474 67.3503 12.4382 67.1094 12.1973C66.8685 11.9499 66.5723 11.8262 66.2207 11.8262C65.8626 11.8262 65.5599 11.9564 65.3125 12.2168C65.0716 12.4707 64.9512 12.7734 64.9512 13.125C64.9512 13.4766 65.0716 13.7728 65.3125 14.0137C65.5599 14.2546 65.8626 14.375 66.2207 14.375ZM87.0117 20.4883C86.8359 21.9922 86.2793 23.1543 85.3418 23.9746C84.4108 24.7884 83.1706 25.1953 81.6211 25.1953C79.9414 25.1953 78.5938 24.5931 77.5781 23.3887C76.569 22.1842 76.0645 20.5729 76.0645 18.5547V17.1875C76.0645 15.8659 76.2988 14.7038 76.7676 13.7012C77.2428 12.6986 77.9134 11.9303 78.7793 11.3965C79.6452 10.8561 80.6478 10.5859 81.7871 10.5859C83.2975 10.5859 84.5085 11.0091 85.4199 11.8555C86.3314 12.6953 86.862 13.8607 87.0117 15.3516H85.127C84.9642 14.2188 84.6094 13.3984 84.0625 12.8906C83.5221 12.3828 82.7637 12.1289 81.7871 12.1289C80.5892 12.1289 79.6484 12.5716 78.9648 13.457C78.2878 14.3424 77.9492 15.6022 77.9492 17.2363V18.6133C77.9492 20.1562 78.2715 21.3835 78.916 22.2949C79.5605 23.2064 80.4622 23.6621 81.6211 23.6621C82.6628 23.6621 83.4603 23.4277 84.0137 22.959C84.5736 22.4837 84.9447 21.6602 85.127 20.4883H87.0117Z" fill="white"/>
<path d="M46.1191 184H44.3027V171.959L40.6602 173.297V171.656L45.8359 169.713H46.1191V184ZM60.3281 177.936C60.3281 180.051 59.9668 181.624 59.2441 182.652C58.5215 183.681 57.3919 184.195 55.8555 184.195C54.3385 184.195 53.2155 183.694 52.4863 182.691C51.7572 181.682 51.3796 180.178 51.3535 178.18V175.768C51.3535 173.678 51.7148 172.125 52.4375 171.109C53.1602 170.094 54.293 169.586 55.8359 169.586C57.3659 169.586 58.4922 170.077 59.2148 171.061C59.9375 172.037 60.3086 173.548 60.3281 175.592V177.936ZM58.5215 175.465C58.5215 173.935 58.3066 172.822 57.877 172.125C57.4473 171.422 56.7669 171.07 55.8359 171.07C54.9115 171.07 54.2376 171.419 53.8145 172.115C53.3913 172.812 53.1732 173.883 53.1602 175.328V178.219C53.1602 179.755 53.3815 180.891 53.8242 181.627C54.2734 182.356 54.9505 182.721 55.8555 182.721C56.7474 182.721 57.4082 182.376 57.8379 181.686C58.2741 180.995 58.502 179.908 58.5215 178.424V175.465ZM62.7695 183.053C62.7695 182.74 62.8607 182.48 63.043 182.271C63.2318 182.063 63.5117 181.959 63.8828 181.959C64.2539 181.959 64.5339 182.063 64.7227 182.271C64.918 182.48 65.0156 182.74 65.0156 183.053C65.0156 183.352 64.918 183.603 64.7227 183.805C64.5339 184.007 64.2539 184.107 63.8828 184.107C63.5117 184.107 63.2318 184.007 63.043 183.805C62.8607 183.603 62.7695 183.352 62.7695 183.053ZM62.7793 174.43C62.7793 174.117 62.8704 173.857 63.0527 173.648C63.2415 173.44 63.5215 173.336 63.8926 173.336C64.2637 173.336 64.5436 173.44 64.7324 173.648C64.9277 173.857 65.0254 174.117 65.0254 174.43C65.0254 174.729 64.9277 174.98 64.7324 175.182C64.5436 175.383 64.2637 175.484 63.8926 175.484C63.5215 175.484 63.2415 175.383 63.0527 175.182C62.8704 174.98 62.7793 174.729 62.7793 174.43ZM76.4023 177.936C76.4023 180.051 76.041 181.624 75.3184 182.652C74.5957 183.681 73.4661 184.195 71.9297 184.195C70.4128 184.195 69.2897 183.694 68.5605 182.691C67.8314 181.682 67.4538 180.178 67.4277 178.18V175.768C67.4277 173.678 67.7891 172.125 68.5117 171.109C69.2344 170.094 70.3672 169.586 71.9102 169.586C73.4401 169.586 74.5664 170.077 75.2891 171.061C76.0117 172.037 76.3828 173.548 76.4023 175.592V177.936ZM74.5957 175.465C74.5957 173.935 74.3809 172.822 73.9512 172.125C73.5215 171.422 72.8411 171.07 71.9102 171.07C70.9857 171.07 70.3118 171.419 69.8887 172.115C69.4655 172.812 69.2474 173.883 69.2344 175.328V178.219C69.2344 179.755 69.4557 180.891 69.8984 181.627C70.3477 182.356 71.0247 182.721 71.9297 182.721C72.8216 182.721 73.4824 182.376 73.9121 181.686C74.3483 180.995 74.5762 179.908 74.5957 178.424V175.465ZM87.6328 177.936C87.6328 180.051 87.2715 181.624 86.5488 182.652C85.8262 183.681 84.6966 184.195 83.1602 184.195C81.6432 184.195 80.5202 183.694 79.791 182.691C79.0618 181.682 78.6842 180.178 78.6582 178.18V175.768C78.6582 173.678 79.0195 172.125 79.7422 171.109C80.4648 170.094 81.5977 169.586 83.1406 169.586C84.6706 169.586 85.7969 170.077 86.5195 171.061C87.2422 172.037 87.6133 173.548 87.6328 175.592V177.936ZM85.8262 175.465C85.8262 173.935 85.6113 172.822 85.1816 172.125C84.752 171.422 84.0716 171.07 83.1406 171.07C82.2161 171.07 81.5423 171.419 81.1191 172.115C80.696 172.812 80.4779 173.883 80.4648 175.328V178.219C80.4648 179.755 80.6862 180.891 81.1289 181.627C81.5781 182.356 82.2552 182.721 83.1602 182.721C84.0521 182.721 84.7129 182.376 85.1426 181.686C85.5788 180.995 85.8066 179.908 85.8262 178.424V175.465Z" fill="white"/>
</svg>
