<svg xmlns="http://www.w3.org/2000/svg" viewBox="0 0 46 46"><defs><style>.cls-1{fill:#006ae8;}.cls-1,.cls-2{stroke:#fff;stroke-miterlimit:10;}.cls-2{fill:gold;}</style></defs><title>Risorsa 7Clear</title><g id="Livello_2" data-name="Livello 2"><g id="Livello_2-2" data-name="Livello 2"><path class="cls-1" d="M36,.5H10A9.5,9.5,0,0,0,.5,10V36A9.5,9.5,0,0,0,10,45.5H36A9.5,9.5,0,0,0,45.5,36V10A9.5,9.5,0,0,0,36,.5Zm-2.59,7,1.07-2.37,1.23,2.29,2.58.29-1.8,1.87L37,12.09,34.67,11l-2.25,1.28.35-2.57L30.85,7.92ZM25.17,43.4a20.4,20.4,0,1,1,5.1-40.13,20.37,20.37,0,0,0,0,39.46A20.37,20.37,0,0,1,25.17,43.4Zm10.06-5.87-1.34,3-1.55-2.88-3.25-.35,2.25-2.37-.67-3.19,2.95,1.41,2.83-1.63L36,34.75,38.44,37ZM37.09,24.7l-2.68,3.18-.9-4.06-3.85-1.57,3.59-2.1.3-4.15,3.11,2.76,4-1L39,21.58l2.2,3.53Z"/><polygon class="cls-2" points="32.42 12.24 34.67 10.96 37.01 12.09 36.49 9.54 38.29 7.67 35.71 7.38 34.48 5.09 33.41 7.46 30.85 7.92 32.77 9.67 32.42 12.24"/><polygon class="cls-2" points="40.7 17.76 36.66 18.76 33.55 16 33.25 20.14 29.66 22.25 33.51 23.82 34.41 27.88 37.09 24.7 41.23 25.11 39.03 21.58 40.7 17.76"/><polygon class="cls-2" points="36.45 31.51 33.62 33.14 30.67 31.73 31.34 34.92 29.09 37.29 32.34 37.64 33.89 40.52 35.23 37.53 38.44 36.95 36.02 34.75 36.45 31.51"/><path class="cls-2" d="M15,23A20.4,20.4,0,0,1,30.27,3.27a20.4,20.4,0,1,0,0,39.46A20.4,20.4,0,0,1,15,23Z"/></g></g></svg>