<svg xmlns="http://www.w3.org/2000/svg" viewBox="0 0 45.25 45.25"><defs><style>.cls-1{fill:#5e1266;}.cls-1,.cls-2,.cls-3{stroke:#fff;stroke-miterlimit:10;stroke-width:0.25px;}.cls-2{fill:#006ae8;}.cls-3{fill:#bbd5ea;}.cls-4{fill:#383838;}.cls-5{fill:#fff;}</style></defs><title>Risorsa 2Heavy snow</title><g id="Livello_2" data-name="Livello 2"><g id="Livello_2-2" data-name="Livello 2"><path class="cls-1" d="M15.87,24.7l-1.68-.95h0l-.81.46-.85.48v1.9l.2.12,1.46.83h0l1.68-.95Zm-.62,1.58-1.1.62h0l-1.08-.63V25l1.09-.62h0l1.09.64Z"/><path class="cls-1" d="M23.05,33.83l-.81.46-.86.48v1.9l.21.11,1.46.83h0l1.68-.95v-1.9l-1.68-1Zm1.07,2.53L23,37h0l-1.09-.64V35.09l1.1-.62,1.08.63Z"/><path class="cls-2" d="M36.38.13H8.88A8.74,8.74,0,0,0,.13,8.88v27.5a8.75,8.75,0,0,0,8.75,8.75h27.5a8.75,8.75,0,0,0,8.75-8.75V8.88A8.75,8.75,0,0,0,36.38.13ZM15.67,31.85l-.25.24h0l-.78-.76h0V32.6h0a.37.37,0,0,1-.37.36h0l-.1,0a.35.35,0,0,1-.27-.34V31.3h0l-.81.79h0l-.24-.24,1.06-1v-1h0l-.81.79h0l-.24-.24,1.06-1v-.9l-.34-.18h0l-1.24-.67,0,0-.67.65V29.6h-.35V28.52l-.75.73v1.43h-.34V29.59l-.93.91h0a.32.32,0,0,1-.18.06A.36.36,0,0,1,8.72,30h0l0,0h0l.45-.44h0l.45-.45H8.52v-.34H10l.75-.73H9.61v-.34h1.51l.5-.5,0-1,0-.08h-1l-1,1,0,.05-.25-.24.78-.77H9l-1,.95L8,27.1l-.24-.24.78-.77H7.22a.37.37,0,0,1-.37-.36.38.38,0,0,1,.37-.37H8.57l-.81-.8L8,24.32l.07.06,1,1h1.06l-.82-.8.25-.24,0,.05,1,1h.91l.05-.09,0-.85-.5-.5H9.6v-.34h1.11L10,22.85H8.5v-.34H9.61l-.93-.91h0a.35.35,0,0,1,0-.51A.33.33,0,0,1,9,21a.35.35,0,0,1,.21.1l.45.43v0l.5.48V20.88h.35v1.48l.75.73V22h.35v1.47l.48.47h0l1.64-1V22l-1-1,.25-.25v0l.77.75h0v-1l-1-1,.25-.24h0l.77.76h0V18.7a.38.38,0,0,1,.37-.37h0a.36.36,0,0,1,.34.34h0V20h0l.8-.79h0l.25.24-1.06,1.05v1h0l.8-.78v0l.25.25-1.06,1v.89l1.72.93h0l.47-.46V21.94h.35V23l.75-.73V20.87h.34V22l.93-.9h0a.35.35,0,0,1,.21-.1.39.39,0,0,1,.31.1h0a.37.37,0,0,1,0,.52l-.45.44,0,0-.46.45h1.15v.34h-1.5l-.75.74h1.15v.34h-1.5l-.45.44,0,.81,0,0h1l1-1,.05-.05.24.24-.78.77h1.06l1-.94.07-.07.25.24-.79.77h1.31a.38.38,0,0,1,.34.37.37.37,0,0,1-.34.36H19.8l.82.8-.25.24-.07-.06-1-1H18.25l.81.8-.24.24-.05-.05-1-1h-.91l0,0,0,1.07.53.53h1.46v.34H17.72l.75.73h1.46V29H18.82l.93.91h0l0,0a.36.36,0,0,1,0,.51.36.36,0,0,1-.32.1.35.35,0,0,1-.21-.1L18.8,30l0,0-.5-.49v1.13h-.35V29.14l-.75-.74v1.13h-.35V28.06l-.63-.62,0,0-1.27.75h0l-.28.16v.95l1,1-.25.24v0l-.78-.75h0v1ZM30,36H28.67l.82.8-.25.24L29.18,37l-1-1H27.12l.82.8-.25.24-.05,0-1-1h-.92l0,0,0,1.08.53.52H27.7V38H26.59l.75.74H28.8v.34H27.69l.93.91h0l0,0a.36.36,0,0,1,0,.52.42.42,0,0,1-.32.1.45.45,0,0,1-.21-.1l-.44-.44a.08.08,0,0,1,0,0l-.5-.49v1.13h-.35V39.21L26,38.48v1.13H25.7V38.14l-.63-.62,0,0-1.26.74h0l-.27.17v.94l1,1-.25.24h0l-.77-.75h0v1l1,1-.25.25v0l-.77-.75h0v1.27h0a.37.37,0,0,1-.37.36h0L23,43a.36.36,0,0,1-.28-.35v-1.3h0l-.8.78v0l-.25-.25,1.06-1v-1h0l-.8.79h0l-.25-.24,1.06-1v-.89l-.34-.19h0l-1.25-.67h0l-.66.65v1.43h-.35V38.59l-.75.74v1.42h-.35V39.67l-.93.9h0a.4.4,0,0,1-.18.07.33.33,0,0,1-.31-.1.35.35,0,0,1,0-.48h0l0,0h0l.45-.44h0l.45-.45H17.39v-.34h1.5l.75-.74H18.49v-.34H20l.5-.49,0-1,0-.08h-1l-1,1-.05,0-.25-.24.79-.77H17.91l-1,.95-.06.06-.25-.24.78-.77H16.09a.37.37,0,1,1,0-.73h1.36l-.82-.8.25-.24.06.06,1,1H19l-.82-.8.25-.24.05.05,1,1h.91l.05-.09V34.5l-.51-.5H18.47v-.34h1.11l-.75-.73H17.37v-.35h1.11l-.92-.9h0a.36.36,0,0,1,0-.52.37.37,0,0,1,.32-.09.31.31,0,0,1,.2.09l.45.44h0l.49.49V31h.35v1.47l.75.74V32h.35v1.47L21,34l0,0,1.65-1V32l-1-1,.25-.24h0l.78.76h0v-1l-1-1,.25-.24h0l.78.76h0v-.58a.13.13,0,0,1,0-.06v-.62a.37.37,0,0,1,.37-.36h0a.37.37,0,0,1,.34.34h0v1.31h0l.8-.79h0l.24.24-1.06,1v1h0l.8-.79h0l.24.24-1.06,1V33l1.72.92,0,0,.47-.46V32H26v1.09l.75-.74V30.94h.35V32l.92-.91h0a.43.43,0,0,1,.21-.09.36.36,0,0,1,.32.1h0a.35.35,0,0,1,0,.51l-.45.44s0,0,0,0l-.47.46h1.16v.34H27.2l-.75.73h1.16V34H26.1l-.45.44,0,.8,0,0h1l1-1,.05-.05.25.24-.79.77h1.06l1-1,.06-.06.25.24-.79.77H30a.37.37,0,0,1,.34.36A.38.38,0,0,1,30,36Zm7.14-10.51H35.92l.75.73-.23.22-.06-.06-.91-.89h-1l.75.73-.23.22,0,0-.93-.91h-.83l0,0,0,1,.48.48H35v.31H34l.69.67H36v.32H35l.84.83h0l0,0a.32.32,0,0,1,0,.47.34.34,0,0,1-.29.09.37.37,0,0,1-.19-.09l-.41-.4,0,0-.45-.45v1h-.32V28.43l-.69-.68v1H33.2V27.44l-.57-.56h0l-1.15.69h0l-.26.15v.86l.95.92-.23.22h0L31.2,29h0V30l.95.92-.23.22h0l-.71-.69h0v1.16h0a.33.33,0,0,1-.34.33h0l-.09,0a.33.33,0,0,1-.25-.31V30.4h0l-.73.72h0l-.23-.22,1-.95V29h0l-.73.72h0l-.23-.22,1-1v-.81l-.31-.17h0L29.08,27l0,0-.61.6v1.3h-.32v-1l-.68.67v1.3h-.32v-1l-.85.83h0a.31.31,0,0,1-.16.06.35.35,0,0,1-.29-.09.34.34,0,0,1,0-.44h0l0,0h0l.41-.4h0l.42-.41H25.61V28H27l.68-.67H26.62v-.32H28l.46-.45,0-.88,0-.08h-.88l-.9.88-.05.05-.22-.22.71-.71h-1l-.89.87-.06.06-.22-.22.72-.71H24.43a.33.33,0,0,1-.34-.33.34.34,0,0,1,.34-.33h1.23l-.74-.73.22-.22.06,0,.92.9h1l-.74-.73.22-.22.05,0,.92.91h.84l0-.08v-.78l-.46-.46H26.6v-.31h1l-.69-.67H25.6v-.31h1l-.84-.83h0a.33.33,0,0,1,0-.47.35.35,0,0,1,.29-.09.34.34,0,0,1,.19.09l.41.4h0l.45.45v-1h.32v1.35l.69.67v-1h.32v1.34l.44.43h0l1.51-.89v-.87L29.47,21l.22-.22h0l.71.69h0v-.94l-.94-.92.22-.22h0l.71.69h0V19.5a.43.43,0,0,1,0-.05v-.56a.34.34,0,0,1,.34-.34h0a.33.33,0,0,1,.31.31h0v1.19h0l.73-.72h0l.23.22-1,1v.94h0l.73-.72h0l.23.22-1,.95v.82l1.57.84,0,0,.43-.42V21.85h.31v1l.69-.67V20.87h.32v1l.85-.83h0a.33.33,0,0,1,.18-.08.31.31,0,0,1,.29.09h0a.33.33,0,0,1,0,.47l-.41.4,0,0-.42.41H36v.32H34.58l-.68.67H35v.31H33.58l-.42.4,0,.74,0,0h.88l.9-.88,0,0,.23.22-.72.7h1l.88-.86.06-.06.23.22-.72.7h1.2a.34.34,0,0,1,0,.67ZM6.65,17.92c0-.16,0-.32,0-.48,0-5,3.48-9.12,7.84-9.3a8.76,8.76,0,0,1,7.7-5.08,8,8,0,0,1,4.49,1.39,5.61,5.61,0,0,1,4.39-2.24C34.32,2.21,37,5.24,37,9a7.28,7.28,0,0,1-1.65,4.68,6.15,6.15,0,0,1,3.31,4.26Z"/><path class="cls-1" d="M30.78,23.51l-.74.42-.78.43V26.1l.19.1,1.33.76h0l1.54-.87V24.37L30.8,23.5Zm1,2.31-1,.57h0l-1-.59V24.65l1-.56h0l1,.58Z"/><path class="cls-3" d="M37.15,24.82H36l.72-.7-.23-.22-.06.06-.88.86h-1l.72-.7L35,23.9l0,0-.9.88H33.2l0,0,0-.74.42-.4H35v-.31H33.9l.68-.67H36v-.32H34.9l.42-.41,0,0,.41-.4a.33.33,0,0,0,0-.47h0a.31.31,0,0,0-.29-.09.33.33,0,0,0-.18.08h0l-.85.83v-1h-.32v1.31l-.69.67v-1h-.31v1.31l-.43.42,0,0-1.57-.84V21.9l1-.95-.23-.22h0l-.73.72h0v-.94l1-1-.23-.22h0l-.73.72h0V18.87h0a.33.33,0,0,0-.31-.31h0a.34.34,0,0,0-.34.34v.56a.43.43,0,0,0,0,.05V20h0l-.71-.69h0l-.22.22.94.92v.94h0l-.71-.69h0l-.22.22.94.92v.87l-1.51.89h0l-.44-.43V21.87h-.32v1l-.69-.67V20.88h-.32v1l-.45-.45h0l-.41-.4a.34.34,0,0,0-.19-.09.35.35,0,0,0-.29.09.33.33,0,0,0,0,.47h0l.84.83h-1v.31h1.33l.69.67h-1v.31h1.34l.46.46v.78l0,.08h-.84l-.92-.91-.05,0-.22.22.74.73h-1l-.92-.9-.06,0-.22.22.74.73H24.43a.34.34,0,0,0-.34.33.33.33,0,0,0,.34.33h1.21l-.72.71.22.22.06-.06.89-.87h1l-.71.71.22.22.05-.05.9-.88h.88l0,.08,0,.88-.46.45H26.62v.32h1.05L27,28H25.61v.31h1.06l-.42.41h0l-.41.4h0l0,0h0a.34.34,0,0,0,0,.44.35.35,0,0,0,.29.09.31.31,0,0,0,.16-.06h0l.85-.83v1h.32v-1.3l.68-.67v1h.32v-1.3l.61-.6,0,0,1.14.61h0l.31.17v.81l-1,1,.23.22h0l.73-.72h0V30l-1,.95.23.22h0l.73-.72h0v1.19a.33.33,0,0,0,.25.31l.09,0h0a.33.33,0,0,0,.34-.33h0V30.43h0l.71.69h0l.23-.22L31.2,30V29h0l.71.69h0l.23-.22-.95-.92v-.86l.26-.15h0l1.15-.69h0l.57.56v1.35h.32v-1l.69.68v1.34h.32v-1l.45.45,0,0,.41.4a.37.37,0,0,0,.19.09.34.34,0,0,0,.29-.09.32.32,0,0,0,0-.47l0,0h0L35,28.29h1V28H34.71L34,27.3h1V27H33.7l-.48-.48,0-1,0,0h.83l.93.91,0,0,.23-.22-.75-.73h1l.91.89.06.06.23-.22-.75-.73h1.23a.34.34,0,0,0,0-.67ZM32.33,26.1,30.79,27h0l-1.33-.76-.19-.1V24.36l.78-.43.74-.42h0l1.53.87Z"/><polygon class="cls-3" points="30.78 24.09 29.78 24.65 29.77 25.8 30.76 26.39 30.76 26.39 31.76 25.82 31.77 24.67 30.78 24.09 30.78 24.09"/><path class="cls-3" d="M30,35.27H28.7l.79-.77-.25-.24-.06.06-1,1H27.15l.79-.77-.25-.24-.05.05-1,1h-1l0,0,0-.8L26.1,34h1.51v-.35H26.45l.75-.73h1.51v-.34H27.55l.47-.46s0,0,0,0l.45-.44a.35.35,0,0,0,0-.51h0a.36.36,0,0,0-.32-.1.43.43,0,0,0-.21.09h0l-.92.91V30.94H26.7v1.43l-.75.74V32H25.6v1.43l-.47.46,0,0L23.38,33v-.9l1.06-1-.24-.24h0l-.8.79h0v-1l1.06-1-.24-.24h0l-.8.79h0V28.75h0a.37.37,0,0,0-.34-.34h0a.37.37,0,0,0-.37.36v.62a.13.13,0,0,0,0,.06V30h0l-.78-.76h0l-.25.24,1,1v1h0l-.78-.76h0L21.6,31l1,1v1L21,34l0,0-.48-.47V32h-.35v1.13l-.75-.74V31H19v1.13l-.49-.49h0l-.45-.44a.31.31,0,0,0-.2-.09.37.37,0,0,0-.32.09.36.36,0,0,0,0,.52h0l.92.9H17.37v.35h1.46l.75.73H18.47V34h1.46l.51.5v.85l-.05.09h-.91l-1-1-.05-.05-.25.24.82.8H17.94l-1-1-.06-.06-.25.24.82.8H16.09a.37.37,0,1,0,0,.73h1.32l-.78.77.25.24.06-.06,1-.95H19l-.79.77.25.24.05,0,1-1h1l0,.08,0,1-.5.49h-1.5v.34h1.15l-.75.74h-1.5v.34h1.15l-.45.45h0l-.45.44h0l0,0h0a.35.35,0,0,0,0,.48.33.33,0,0,0,.31.1.4.4,0,0,0,.18-.07h0l.93-.9v1.08h.35V39.33l.75-.74v1.09h.35V38.25l.66-.65h0l1.25.67h0l.34.19v.89l-1.06,1,.25.24h0l.8-.79h0v1l-1.06,1,.25.25v0l.8-.78h0v1.3A.36.36,0,0,0,23,43l.09,0h0a.37.37,0,0,0,.37-.36h0V41.41h0l.77.75v0l.25-.25-1-1v-1h0l.77.75h0l.25-.24-1-1v-.94l.27-.17h0L25,37.54l0,0,.63.62v1.47H26V38.48l.75.73v1.47h.35V39.55l.5.49a.08.08,0,0,0,0,0l.44.44a.45.45,0,0,0,.21.1.42.42,0,0,0,.32-.1.36.36,0,0,0,0-.52l0,0h0l-.93-.91H28.8v-.34H27.34L26.59,38H27.7v-.34H26.24l-.53-.52,0-1.08,0,0h.92l1,1,.05,0,.25-.24-.82-.8h1.06l1,1,.06.06.25-.24-.82-.8H30a.38.38,0,0,0,.34-.37A.37.37,0,0,0,30,35.27Zm-5.27,1.4-1.68.95h0l-1.46-.83-.21-.11v-1.9l.86-.48.81-.46h0l1.68,1Z"/><polygon class="cls-3" points="21.95 35.09 21.94 36.34 23.03 36.98 23.03 36.98 24.12 36.36 24.13 35.1 23.05 34.47 21.95 35.09"/><path class="cls-3" d="M14.63,29.8l.78.75v0l.25-.24-1-1v-.95l.28-.16h0l1.27-.75,0,0,.63.62v1.47h.35V28.4l.75.74v1.47h.35V29.48l.5.49,0,0,.45.44a.35.35,0,0,0,.21.1.36.36,0,0,0,.32-.1.36.36,0,0,0,0-.51l0,0h0L18.82,29h1.11v-.34H18.47l-.75-.73h1.11v-.34H17.37L16.84,27l0-1.07,0,0h.91l1,1,.05.05.24-.24-.81-.8h1.06l1,1,.07.06.25-.24-.82-.8h1.34a.37.37,0,0,0,.34-.36.38.38,0,0,0-.34-.37H19.83l.79-.77-.25-.24-.07.07-1,.94H18.28l.78-.77-.24-.24-.05.05-1,1h-1l0,0,0-.81.45-.44h1.5v-.34H17.58l.75-.74h1.5v-.34H18.68l.46-.45,0,0,.45-.44a.37.37,0,0,0,0-.52h0a.39.39,0,0,0-.31-.1.35.35,0,0,0-.21.1h0l-.93.9V20.87h-.34V22.3l-.75.73V21.94h-.35v1.43l-.47.46h0l-1.72-.93V22l1.06-1-.25-.25v0l-.8.78h0v-1l1.06-1.05-.25-.24h0l-.8.79h0V18.68h0a.36.36,0,0,0-.34-.34h0a.38.38,0,0,0-.37.37V20h0L13,19.2h0l-.25.24,1,1v1h0L13,20.73v0l-.25.25,1,1v.94l-1.64,1h0l-.48-.47V22h-.35v1.13l-.75-.73V20.88h-.35V22l-.5-.48v0l-.45-.43A.35.35,0,0,0,9,21a.33.33,0,0,0-.31.1.35.35,0,0,0,0,.51h0l.93.91H8.5v.34H10l.75.73H9.6v.34h1.46l.5.5,0,.85-.05.09h-.91l-1-1,0-.05-.25.24.82.8H9.07l-1-1L8,24.32l-.24.24.81.8H7.22a.38.38,0,0,0-.37.37.37.37,0,0,0,.37.36H8.54l-.78.77L8,27.1,8.07,27l1-.95h1.06l-.78.77.25.24,0-.05,1-1h1l0,.08,0,1-.5.5H9.61V28h1.16l-.75.73H8.52v.34H9.67l-.45.45h0L8.75,30h0l0,0h0a.36.36,0,0,0,.35.58.32.32,0,0,0,.18-.06h0l.93-.91v1.09h.34V29.25l.75-.73V29.6h.35V28.17l.67-.65,0,0,1.24.67h0l.34.18v.9l-1.06,1,.24.24h0l.81-.79h0v1l-1.06,1,.24.24h0l.81-.79h0v1.3a.35.35,0,0,0,.27.34l.1,0h0a.37.37,0,0,0,.37-.36h0V31.33h0l.78.76h0l.25-.24-1-1v-1Zm-.45-2.26h0l-1.46-.83-.2-.12v-1.9l.85-.48.81-.46h0l1.68.95v1.89Z"/><polygon class="cls-3" points="14.17 24.39 13.08 25.01 13.07 26.27 14.15 26.91 14.15 26.91 15.25 26.28 15.26 25.03 14.17 24.39 14.17 24.39"/><path class="cls-4" d="M7.13,17.42c0-4.76,3.24-8.61,7.37-8.78h.29l.13-.26a8.28,8.28,0,0,1,7.25-4.81,7.5,7.5,0,0,1,4.21,1.31l.39.25.28-.36a5.15,5.15,0,0,1,4-2c3,0,5.42,2.81,5.42,6.27a6.77,6.77,0,0,1-1.53,4.36l-.42.5.6.27A5.57,5.57,0,0,1,38,17.42Z"/><path class="cls-5" d="M31.05,3.21C33.77,3.21,36,5.8,36,9a6.3,6.3,0,0,1-1.41,4l-.85,1,1.2.55a4.93,4.93,0,0,1,2.31,2.35H7.64c.22-4.25,3.16-7.63,6.87-7.78l.59,0,.27-.53a7.79,7.79,0,0,1,6.8-4.53A7,7,0,0,1,26.1,5.28l.77.52.58-.73a4.55,4.55,0,0,1,3.6-1.86m0-1a5.61,5.61,0,0,0-4.39,2.24,8,8,0,0,0-4.49-1.39,8.76,8.76,0,0,0-7.7,5.08c-4.36.18-7.84,4.27-7.84,9.3,0,.16,0,.32,0,.48h32a6.15,6.15,0,0,0-3.31-4.26A7.28,7.28,0,0,0,37,9c0-3.74-2.65-6.77-5.92-6.77Z"/></g></g></svg>