<svg width="15" height="15" viewBox="0 0 15 15" fill="none" xmlns="http://www.w3.org/2000/svg">
<path d="M13.2376 8.23125C13.2666 7.99687 13.2859 7.75313 13.2859 7.5C13.2859 7.24687 13.2666 7.00313 13.228 6.76875L14.8577 5.53125C15.0023 5.41875 15.0409 5.2125 14.9541 5.05312L13.4112 2.45625C13.3148 2.2875 13.1123 2.23125 12.9387 2.2875L11.0197 3.0375C10.6147 2.7375 10.1904 2.49375 9.71791 2.30625L9.42862 0.31875C9.39969 0.13125 9.23576 0 9.04289 0H5.95711C5.76425 0 5.60996 0.13125 5.58103 0.31875L5.29173 2.30625C4.81922 2.49375 4.38528 2.74687 3.98992 3.0375L2.07094 2.2875C1.89737 2.22187 1.69486 2.2875 1.59843 2.45625L0.0555397 5.05312C-0.0408912 5.22187 -0.00231869 5.41875 0.151971 5.53125L1.78165 6.76875C1.74308 7.00313 1.71415 7.25625 1.71415 7.5C1.71415 7.74375 1.73344 7.99687 1.77201 8.23125L0.142327 9.46875C-0.00231892 9.58125 -0.0408912 9.7875 0.0458966 9.94687L1.58879 12.5437C1.68522 12.7125 1.88773 12.7688 2.0613 12.7125L3.98027 11.9625C4.38528 12.2625 4.80958 12.5063 5.28209 12.6938L5.57138 14.6812C5.60996 14.8687 5.76425 15 5.95711 15H9.04289C9.23576 15 9.39969 14.8687 9.41897 14.6812L9.70827 12.6938C10.1808 12.5063 10.6147 12.2531 11.0101 11.9625L12.9291 12.7125C13.1026 12.7781 13.3051 12.7125 13.4016 12.5437L14.9445 9.94687C15.0409 9.77812 15.0023 9.58125 14.848 9.46875L13.2376 8.23125ZM7.5 10.3125C5.90889 10.3125 4.60708 9.04688 4.60708 7.5C4.60708 5.95312 5.90889 4.6875 7.5 4.6875C9.09111 4.6875 10.3929 5.95312 10.3929 7.5C10.3929 9.04688 9.09111 10.3125 7.5 10.3125Z" fill="white"/>
</svg>
