<?xml version="1.0" encoding="utf-8"?>
<!-- Generator: Adobe Illustrator 23.0.0, SVG Export Plug-In . SVG Version: 6.00 Build 0)  -->
<svg version="1.1" id="Livello_1" focusable="false"
	 xmlns="http://www.w3.org/2000/svg" xmlns:xlink="http://www.w3.org/1999/xlink" x="0px" y="0px" viewBox="0 0 448 512"
	 style="enable-background:new 0 0 448 512;" xml:space="preserve">
<style type="text/css">
	.st0{fill:#FFFFFF;}
</style>
<path class="st0" d="M0,84V44c0-8.8,7.2-16,16-16h416c8.8,0,16,7.2,16,16v40c0,8.8-7.2,16-16,16H16C7.2,100,0,92.8,0,84z M16,228
	h416c8.8,0,16-7.2,16-16v-40c0-8.8-7.2-16-16-16H16c-8.8,0-16,7.2-16,16v40C0,220.8,7.2,228,16,228z M16,484h416c8.8,0,16-7.2,16-16
	v-40c0-8.8-7.2-16-16-16H16c-8.8,0-16,7.2-16,16v40C0,476.8,7.2,484,16,484z M16,356h416c8.8,0,16-7.2,16-16v-40c0-8.8-7.2-16-16-16
	H16c-8.8,0-16,7.2-16,16v40C0,348.8,7.2,356,16,356z"/>
</svg>
