<svg width="346" height="345" viewBox="0 0 346 345" fill="none" xmlns="http://www.w3.org/2000/svg">
<path d="M276.5 4.13983H69.5C33.5095 4.13983 4.33337 33.3159 4.33337 69.3065V276.306C4.33337 312.297 33.5095 341.473 69.5 341.473H276.5C312.491 341.473 341.667 312.297 341.667 276.306V69.3065C341.667 33.3159 312.491 4.13983 276.5 4.13983Z" fill="#00B1FF"/>
<path d="M276.5 7.66667C292.767 7.66667 308.367 14.1286 319.869 25.6308C331.371 37.133 337.833 52.7334 337.833 69V276C337.833 292.267 331.371 307.867 319.869 319.369C308.367 330.871 292.767 337.333 276.5 337.333H69.5C53.2334 337.333 37.633 330.871 26.1308 319.369C14.6286 307.867 8.16667 292.267 8.16667 276V69C8.16667 52.7334 14.6286 37.133 26.1308 25.6308C37.633 14.1286 53.2334 7.66667 69.5 7.66667H276.5ZM276.5 0H69.5C51.2001 0 33.6496 7.26962 20.7096 20.2096C7.76962 33.1496 0.5 50.7001 0.5 69L0.5 276C0.5 294.3 7.76962 311.85 20.7096 324.79C33.6496 337.73 51.2001 345 69.5 345H276.5C294.8 345 312.35 337.73 325.29 324.79C338.23 311.85 345.5 294.3 345.5 276V69C345.5 50.7001 338.23 33.1496 325.29 20.2096C312.35 7.26962 294.8 0 276.5 0Z" fill="white"/>
<path d="M210.643 22.5401L208.343 8.28009C183.981 34.0052 153.725 53.4155 120.186 64.8356C86.6464 76.2558 50.8319 79.3427 15.8333 73.8301C32.751 104.95 41.8553 139.714 42.3628 175.131C42.8703 210.548 34.7658 245.559 18.7466 277.15C53.5818 270.705 89.4609 272.815 123.301 283.298C157.141 293.781 187.929 312.324 213.02 337.333C217.592 302.192 230.645 268.69 251.055 239.719C271.464 210.749 298.615 187.179 330.167 171.043L317.057 164.833C289.104 151.531 264.809 131.625 246.27 106.834C227.73 82.0432 215.503 53.1127 210.643 22.5401ZM153.833 250.317C138.491 250.302 123.498 245.738 110.749 237.204C98.0004 228.669 88.0678 216.547 82.2072 202.368C76.3466 188.19 74.8211 172.592 77.8234 157.547C80.8258 142.501 88.2212 128.684 99.075 117.841C109.929 106.998 123.753 99.6161 138.802 96.6287C153.85 93.6412 169.446 95.1821 183.619 101.057C197.791 106.931 209.904 116.876 218.426 129.633C226.948 142.391 231.497 157.388 231.497 172.73C231.497 182.925 229.487 193.021 225.583 202.439C221.679 211.857 215.958 220.414 208.745 227.619C201.532 234.825 192.97 240.538 183.548 244.433C174.126 248.327 164.029 250.327 153.833 250.317Z" fill="#FFC430" stroke="white" stroke-miterlimit="10"/>
<path d="M153.986 250.316C196.836 250.316 231.573 215.58 231.573 172.73C231.573 129.88 196.836 95.1431 153.986 95.1431C111.136 95.1431 76.3992 129.88 76.3992 172.73C76.3992 215.58 111.136 250.316 153.986 250.316Z" fill="#FFD700" stroke="white" stroke-miterlimit="10"/>
<path d="M69.5004 341.473C60.9196 341.463 52.4251 339.761 44.5032 336.463C36.5814 333.165 29.3878 328.337 23.3345 322.256C17.2812 316.174 12.4871 308.958 9.22667 301.02C5.96622 293.083 4.30352 284.581 4.33378 276V272.55C12.7394 260.207 23.8611 249.955 36.8454 242.579C49.8297 235.203 64.3312 230.9 79.2371 230H81.4604L82.4571 228.007C102.314 188.753 139.114 164.373 178.597 164.373C198.561 164.454 218.047 170.486 234.564 181.7L237.554 183.693L239.7 180.933C245.978 172.582 254.071 165.765 263.367 160.998C272.664 156.23 282.922 153.635 293.367 153.41C302.398 153.507 311.316 155.423 319.589 159.046C327.861 162.669 335.318 167.922 341.514 174.493V276C341.493 293.277 334.621 309.841 322.404 322.057C310.188 334.274 293.624 341.146 276.347 341.167L69.5004 341.473Z" fill="white"/>
<path d="M293.52 157.397C310.208 157.631 326.13 164.435 337.833 176.333V276C337.833 292.266 331.371 307.867 319.869 319.369C308.367 330.871 292.767 337.333 276.5 337.333H69.5C53.2334 337.333 37.633 330.871 26.1308 319.369C14.6286 307.867 8.16667 292.266 8.16667 276V273.776C16.2457 262.16 26.8509 252.525 39.1863 245.594C51.5217 238.663 65.2668 234.616 79.39 233.757H83.8367L85.9067 229.77C105.073 191.437 140.57 168.437 178.597 168.437C197.752 168.532 216.441 174.353 232.263 185.15L238.167 189.06L242.537 183.54C248.485 175.633 256.15 169.178 264.955 164.663C273.76 160.148 283.474 157.69 293.367 157.473L293.52 157.397ZM293.367 149.807C282.314 149.983 271.448 152.686 261.601 157.709C251.755 162.733 243.188 169.942 236.557 178.787C219.439 167.218 199.257 161.024 178.597 161C136.047 161 98.94 187.45 78.93 226.703C63.2763 227.63 48.0498 232.169 34.4429 239.963C20.8361 247.757 9.21849 258.596 0.5 271.63L0.5 276C0.5 294.3 7.76962 311.85 20.7096 324.79C33.6496 337.73 51.2001 345 69.5 345H276.5C294.8 345 312.35 337.73 325.29 324.79C338.23 311.85 345.5 294.3 345.5 276V173.113C338.876 165.92 330.843 160.166 321.901 156.209C312.959 152.253 303.298 150.178 293.52 150.113L293.367 149.807Z" fill="white"/>
</svg>
