<svg xmlns="http://www.w3.org/2000/svg" viewBox="0 0 46 46"><defs><style>.cls-1{fill:#006ae8;}.cls-1,.cls-2{stroke:#fff;stroke-miterlimit:10;}.cls-2{fill:#bfbebf;stroke-width:0.25px;}</style></defs><title>Risorsa 5Mist</title><g id="Livello_2" data-name="Livello 2"><g id="Livello_2-2" data-name="Livello 2"><path class="cls-1" d="M36.5.5H9.5a9,9,0,0,0-9,9v27a9,9,0,0,0,9,9h27a9,9,0,0,0,9-9V9.5A9,9,0,0,0,36.5.5Zm7,30H2.53V28.72H43.47Zm0-3.31H2.53V25.42H43.47Zm0-3.3H2.53V22.11H43.47Zm0-3.31H2.53V18.81H43.47Zm0-3.3H2.53V15.5H43.47Z"/><rect class="cls-2" x="2.53" y="15.5" width="40.93" height="1.78"/><rect class="cls-2" x="2.53" y="18.81" width="40.93" height="1.78"/><rect class="cls-2" x="2.53" y="22.11" width="40.93" height="1.78"/><rect class="cls-2" x="2.53" y="25.42" width="40.93" height="1.78"/><rect class="cls-2" x="2.53" y="28.72" width="40.93" height="1.78"/></g></g></svg>