<svg xmlns="http://www.w3.org/2000/svg" viewBox="0 0 45.5 45.5"><defs><style>.cls-1{fill:#a6c6eb;}.cls-1,.cls-2{stroke:#fff;stroke-miterlimit:10;stroke-width:0.5px;}.cls-2{fill:#bfbebf;}</style></defs><title>Risorsa 6Nebbia</title><g id="Livello_2" data-name="Livello 2"><g id="Livello_2-2" data-name="Livello 2"><path class="cls-1" d="M36.25.25h-27a9,9,0,0,0-9,9v27a9,9,0,0,0,9,9h27a9,9,0,0,0,9-9v-27A9,9,0,0,0,36.25.25Zm7,30H2.28V28.47H43.22Zm0-3.31H2.28V25.17H43.22Zm0-3.3H2.28V21.86H43.22Zm0-3.31H2.28V18.56H43.22Zm0-3.3H2.28V15.25H43.22Z"/><rect class="cls-2" x="2.28" y="15.25" width="40.93" height="1.78"/><rect class="cls-2" x="2.28" y="18.56" width="40.93" height="1.78"/><rect class="cls-2" x="2.28" y="21.86" width="40.93" height="1.78"/><rect class="cls-2" x="2.28" y="25.17" width="40.93" height="1.78"/><rect class="cls-2" x="2.28" y="28.47" width="40.93" height="1.78"/></g></g></svg>