<svg width="600" height="600" viewBox="0 0 600 600" fill="none" xmlns="http://www.w3.org/2000/svg">
<path d="M302.831 43.9687L302.515 41.9712C299.144 45.5985 295.065 48.2316 290.378 49.8695C285.791 51.5067 280.795 51.947 275.989 51.2859C278.324 55.5671 279.663 60.3565 279.802 65.2555C279.942 70.1545 278.881 74.9633 276.615 79.2817C281.408 78.343 286.31 78.6033 291.021 79.9653C295.733 81.3273 299.953 83.8933 303.481 87.2649C304.042 82.4602 305.804 77.7458 308.572 73.7233C311.339 69.7008 315.113 66.4702 319.394 64.1355L317.588 63.3501C313.774 61.5808 310.351 58.8084 307.824 55.4287C305.297 52.149 303.565 48.1629 302.831 43.9687ZM295.286 75.5307C293.186 75.5477 291.081 74.9647 289.271 73.7793C287.462 72.5938 286.149 71.0044 285.233 69.0117C284.417 67.0183 284.2 64.92 284.583 62.8168C284.966 60.7136 285.95 58.8056 287.438 57.2935C288.926 55.7815 290.818 54.7661 292.914 54.3492C295.011 53.9322 297.113 54.1152 299.119 54.8991C301.126 55.6829 302.737 57.0699 303.951 58.7601C305.165 60.5504 305.781 62.5455 305.798 64.6454C305.821 67.4453 304.743 70.1541 302.759 72.1702C300.775 74.1863 298.086 75.5081 295.286 75.5307Z" fill="#FFC430" stroke="white" stroke-miterlimit="10"/>
<path d="M295.286 75.5307C301.186 75.483 305.947 70.6444 305.899 64.7446C305.851 58.8448 301.013 54.0837 295.113 54.1314C289.213 54.1791 284.452 59.0177 284.5 64.9175C284.547 70.8174 289.386 75.5784 295.286 75.5307Z" fill="#FFD700" stroke="white" stroke-miterlimit="10"/>
</svg>
